<?xml version="1.0" encoding="UTF-8"?> <svg xmlns="http://www.w3.org/2000/svg" xmlns:xlink="http://www.w3.org/1999/xlink" version="1.1" id="Слой_1" x="0px" y="0px" viewBox="0 0 802.2 680.3" style="enable-background:new 0 0 802.2 680.3;" xml:space="preserve"> <style type="text/css"> .st0{fill:#FFC61E;} </style> <g> <g> <g> <path class="st0" d="M773.1,1.6h-241c-0.1,0-0.1,0-0.2,0H392.2c-0.1,0-0.1,0-0.2,0H190.2c-4.8,0-9.5,1.2-13.7,3.5L15.5,94.9 c-8.9,4.9-14.4,14.3-14.4,24.5v531.3c0,15.5,12.6,28,28,28h208.3h139.8H618c5.5,0,10.6-1.6,14.9-4.3l153.9-86.3 c8.8-5,14.3-14.3,14.3-24.5V29.6C801.1,14.1,788.5,1.6,773.1,1.6z M209.4,622.7H57.2V144.6h152.2V622.7z M230.1,88.5h-88 l55.4-30.9h87.7L230.1,88.5z M349.2,622.7h-83.7V144.6h83.7V622.7z M369.9,88.5h-25.1l55.1-30.9H425L369.9,88.5z M589.9,622.7 H405.3V144.6h184.6L589.9,622.7L589.9,622.7z M610.6,88.5h-126l55.1-30.9h126L610.6,88.5z M745,547.3l-99,55.5V133l99-55.5V547.3 z"></path> </g> </g> <g> <g> <path class="st0" d="M520.1,515.9h-54.8c-15.5,0-28,12.6-28,28c0,15.5,12.6,28,28,28h54.8c15.5,0,28-12.6,28-28 S535.6,515.9,520.1,515.9z"></path> </g> </g> </g> </svg> 