<?xml version="1.0" encoding="UTF-8"?> <svg xmlns="http://www.w3.org/2000/svg" width="602" height="696" viewBox="0 0 602 696" fill="none"><path d="M68.6408 201.364L80.7516 191.676C100.129 177.143 114.662 152.921 117.084 128.7L119.506 119.011C129.195 56.0354 197.015 17.281 259.991 41.5025C286.634 51.1911 313.278 51.1911 339.922 41.5025C400.475 14.8589 470.718 53.6133 480.406 119.011L482.828 128.7C485.25 152.921 499.783 177.143 519.161 191.676L531.271 201.364C582.136 240.119 582.136 312.783 531.271 351.538L516.738 361.226C497.361 375.759 482.828 399.981 480.406 424.202L477.984 433.891C468.295 496.867 400.475 535.621 337.499 511.4C310.856 501.711 284.212 501.711 257.568 511.4C197.015 538.043 126.772 499.289 117.084 433.891L114.662 424.202C112.24 399.981 97.7066 375.759 78.3294 361.226L66.2187 351.538C20.1978 312.783 20.1978 240.119 68.6408 201.364Z" stroke="#FFC61E" stroke-width="64" stroke-miterlimit="10" stroke-linecap="round" stroke-linejoin="round"></path><path d="M444.134 494.45V664L298.806 591.336L153.477 664V494.45" stroke="#FFC61E" stroke-width="64" stroke-miterlimit="10" stroke-linecap="round" stroke-linejoin="round"></path><path d="M283.056 200.316V274.785C283.056 276.227 283.88 277.154 285.528 277.566C293.356 278.596 300.978 279.111 308.394 279.111C325.08 279.111 337.749 275.506 346.401 268.296C355.259 260.88 359.688 250.374 359.688 236.778C359.688 209.38 342.59 195.681 308.394 195.681C300.978 195.681 293.356 196.196 285.528 197.226C283.88 197.638 283.056 198.668 283.056 200.316ZM257.718 390.66C252.98 390.66 248.86 388.909 245.358 385.407C242.062 381.905 240.414 377.785 240.414 373.047V184.248C240.414 179.304 242.062 174.875 245.358 170.961C248.654 167.047 252.774 164.884 257.718 164.472C275.228 162.824 292.12 162 308.394 162C339.294 162 362.469 168.18 377.919 180.54C393.369 192.694 401.094 210.41 401.094 233.688C401.094 259.438 393.575 278.905 378.537 292.089C363.705 305.273 341.663 311.865 312.411 311.865C305.613 311.865 296.652 311.453 285.528 310.629C283.88 310.629 283.056 311.453 283.056 313.101V373.047C283.056 377.785 281.305 381.905 277.803 385.407C274.301 388.909 270.181 390.66 265.443 390.66H257.718Z" fill="#FFC61E"></path><path d="M210.904 310.66C207.128 310.66 203.866 309.104 201.12 305.99C198.373 302.67 197 298.726 197 294.16C197 289.594 198.373 285.754 201.12 282.641C203.866 279.321 207.128 277.66 210.904 277.66H269.096C272.872 277.66 276.134 279.321 278.88 282.641C281.627 285.754 283 289.594 283 294.16C283 298.726 281.627 302.67 278.88 305.99C276.134 309.104 272.872 310.66 269.096 310.66H210.904Z" fill="#FFC61E"></path><path d="M210.904 355.66C207.128 355.66 203.866 354.104 201.12 350.99C198.373 347.67 197 343.726 197 339.16C197 334.594 198.373 330.754 201.12 327.641C203.866 324.321 207.128 322.66 210.904 322.66H269.096C272.872 322.66 276.134 324.321 278.88 327.641C281.627 330.754 283 334.594 283 339.16C283 343.726 281.627 347.67 278.88 350.99C276.134 354.104 272.872 355.66 269.096 355.66H210.904Z" fill="#FFC61E"></path><path d="M282.904 355.66C279.128 355.66 275.866 354.104 273.12 350.99C270.373 347.67 269 343.726 269 339.16C269 334.594 270.373 330.754 273.12 327.641C275.866 324.321 279.128 322.66 282.904 322.66H341.096C344.872 322.66 348.134 324.321 350.88 327.641C353.627 330.754 355 334.594 355 339.16C355 343.726 353.627 347.67 350.88 350.99C348.134 354.104 344.872 355.66 341.096 355.66H282.904Z" fill="#FFC61E"></path></svg> 