<?xml version="1.0" encoding="UTF-8"?> <svg xmlns="http://www.w3.org/2000/svg" xmlns:xlink="http://www.w3.org/1999/xlink" version="1.1" id="quality-5" x="0px" y="0px" viewBox="0 0 800 800" style="enable-background:new 0 0 800 800;" xml:space="preserve"> <style type="text/css"> .st0{fill:#FFC61E;} </style> <path class="st0" d="M374.3,411.2L374.3,411.2c-9.6,0-18.6-4.1-24.9-11.2l-51-57.5c-12.2-13.8-10.9-34.8,2.8-47.1 c13.8-12.2,34.8-10.9,47.1,2.8l26.1,29.4l77.4-87c12.2-13.8,33.3-15,47.1-2.7c13.8,12.2,15,33.3,2.7,47.1L399.2,400 C392.9,407.1,383.8,411.2,374.3,411.2z"></path> <path class="st0" d="M243.2,775.3c-10.6,0-20.5-5-26.8-13.5L151,673.4L45.5,642.1c-10.3-3-18.4-10.9-22-21 c-3.5-10.1-2-21.3,4.2-30.1l106.9-153c10.5-15.1,31.3-18.8,46.4-8.2c15.1,10.5,18.8,31.3,8.2,46.4l-80.5,115.1l71.8,21.3 c6.9,2.1,13,6.3,17.3,12.1l44.5,60.2l83.8-119.6c10.6-15.1,31.3-18.7,46.4-8.2c15.1,10.6,18.7,31.4,8.2,46.4L270.5,761.1 c-6.2,8.8-16.1,14.1-26.9,14.2C243.5,775.3,243.4,775.3,243.2,775.3z"></path> <path class="st0" d="M556.8,775.3c-0.1,0-0.3,0-0.4,0c-10.7-0.1-20.7-5.4-26.9-14.2L419.1,603.6c-10.6-15.1-6.9-35.9,8.2-46.4 c15.1-10.6,35.9-6.9,46.4,8.2L557.5,685l44.5-60.2c4.3-5.8,10.4-10.1,17.3-12.1l71.8-21.3l-80.5-115.1c-10.5-15.1-6.9-35.9,8.2-46.4 c15.1-10.5,35.9-6.9,46.4,8.2l107,153c6.1,8.8,7.7,20,4.2,30.1s-11.7,17.9-22,21L649,673.4l-65.4,88.4 C577.3,770.3,567.3,775.3,556.8,775.3z"></path> <path class="st0" d="M400,622c-80.6,0-156.3-31.4-213.3-88.4S98.3,400.9,98.3,320.3S129.7,164,186.7,107S319.4,18.7,400,18.7 s156.3,31.4,213.3,88.4s88.4,132.7,88.4,213.3s-31.4,156.3-88.4,213.3C556.3,590.6,480.6,622,400,622z M400,85.3 c-129.6,0-235,105.4-235,235s105.4,235,235,235s235-105.4,235-235C635,190.8,529.6,85.3,400,85.3z"></path> </svg> 