<?xml version="1.0" encoding="UTF-8"?> <svg xmlns="http://www.w3.org/2000/svg" xmlns:xlink="http://www.w3.org/1999/xlink" version="1.1" id="Capa_1" x="0px" y="0px" viewBox="0 0 800 800" style="enable-background:new 0 0 800 800;" xml:space="preserve"> <style type="text/css"> .st0{fill:#FFC61E;} </style> <g> <g> <path class="st0" d="M56.6,750.1h45.3c31.3,0,56.6-25.3,56.6-56.6V323.2c0-31.3-25.3-56.6-56.6-56.6H56.6 C25.3,266.6,0,292,0,323.2v370.3C0,724.8,25.3,750.1,56.6,750.1z"></path> <path class="st0" d="M264.8,751.4h370.4c25,0,53.9-13.2,70.3-32.1l19.4-22.4c13.5-15.6,25.2-40.8,28.4-61.3l45.9-296.7 c4.8-31.1-12.1-63.9-40.3-78l-12.3-6.2c-17.3-8.7-42.9-14.7-62.3-14.7H513.2l37.7-105.5c6.5-18.3,4.7-38.2-5.1-54.6 c-9.5-15.8-25.5-26.5-44-29.1c-10.2-1.5-20.4-2.2-30.4-2.2c-47.2,0-86.8,16.6-114.7,48c-8,9.1-15.3,20.9-21.6,31.3 c-2.4,4-4.8,7.8-6.8,10.9c-28.8,42.6-71.6,79-94.6,96.9c-20.5,16-34.9,45-34.9,70.4v379.2C198.8,721.7,228.4,751.4,264.8,751.4z M285.6,307.5c0.4-1.1,1.3-2.8,2-3.7c27.1-21.2,77.3-64.2,112.5-116.3c2.7-4,5.8-9,9-14.3c3.8-6.2,9.6-15.7,12.5-18.9 c8.7-9.8,20.9-15.8,36.4-18l-39.7,111.3c-6.8,19.1-4.4,39,6.7,54.7c11,15.7,29,24.6,49.3,24.6h210c5.8,0,18.3,3,23.5,5.5l4.2,2.1 l-44.5,287.8c-0.7,4.3-5.3,14.4-8.2,17.7l-18.9,21.8c-1.3,1-4.2,2.3-5.9,2.7H285.6V307.5z"></path> </g> </g> </svg> 