<?xml version="1.0" encoding="UTF-8"?> <svg xmlns="http://www.w3.org/2000/svg" width="654" height="667" viewBox="0 0 654 667" fill="none"><path fill-rule="evenodd" clip-rule="evenodd" d="M593.335 272.667C583.002 166.667 520.335 0 326.668 0C133.002 0 70.3349 166.667 60.0016 272.667C23.752 286.424 -0.158818 321.228 0.000794226 360V406.667C0.000794226 458.213 41.7884 500 93.3349 500C144.882 500 186.668 458.213 186.668 406.667V360C186.501 322.065 163.468 287.977 128.335 273.667C135.002 212.333 167.668 66.6667 326.668 66.6667C485.668 66.6667 518.002 212.333 524.668 273.667C489.606 288.008 466.69 322.119 466.668 360V406.667C466.813 442.499 487.388 475.11 519.668 490.667C505.668 517 470.002 552.667 382.335 563.333C364.811 536.723 330.907 526.233 301.416 538.296C271.926 550.36 255.094 581.604 261.244 612.867C267.394 644.131 294.806 666.667 326.668 666.667C351.846 666.527 374.798 652.215 386.002 629.667C529.002 613.333 574.668 539.667 589.002 496.333C627.779 483.772 653.858 447.424 653.335 406.667V360C653.495 321.228 629.585 286.424 593.335 272.667ZM120.002 406.667C120.002 421.394 108.063 433.333 93.3349 433.333C78.6073 433.333 66.6683 421.394 66.6683 406.667V360C66.6683 350.473 71.7509 341.67 80.0016 336.906C88.2523 332.142 98.4176 332.142 106.668 336.906C114.919 341.67 120.002 350.473 120.002 360V406.667ZM533.335 360C533.335 345.272 545.274 333.333 560.002 333.333C574.729 333.333 586.668 345.272 586.668 360V406.667C586.668 421.394 574.729 433.333 560.002 433.333C545.274 433.333 533.335 421.394 533.335 406.667V360Z" fill="#FFC61E"></path></svg> 