<?xml version="1.0" encoding="UTF-8"?> <svg xmlns="http://www.w3.org/2000/svg" width="734" height="705" viewBox="0 0 734 705" fill="none"><path d="M167.333 167.333L317.333 317.333M167.333 167.333H67.3333L34 67.3333L67.3333 34L167.333 67.3333V167.333ZM609.3 58.7003L521.713 146.288C508.513 159.488 501.91 166.088 499.44 173.699C497.263 180.394 497.263 187.606 499.44 194.301C501.91 201.912 508.513 208.512 521.713 221.712L529.62 229.621C542.82 242.822 549.423 249.422 557.033 251.895C563.727 254.07 570.94 254.07 577.633 251.895C585.243 249.422 591.847 242.822 605.047 229.621L686.977 147.691C695.8 169.163 700.667 192.68 700.667 217.333C700.667 318.587 618.587 400.667 517.333 400.667C505.127 400.667 493.197 399.473 481.66 397.197C465.453 394.003 457.35 392.403 452.44 392.893C447.217 393.413 444.643 394.197 440.017 396.673C435.663 399.003 431.3 403.367 422.567 412.1L184 650.667C156.386 678.28 111.614 678.28 84 650.667C56.3857 623.053 56.3857 578.28 84 550.667L322.567 312.1C331.3 303.367 335.663 299.002 337.993 294.65C340.47 290.023 341.253 287.449 341.773 282.227C342.263 277.315 340.663 269.213 337.47 253.008C335.193 241.469 334 229.54 334 217.333C334 116.081 416.08 34 517.333 34C550.85 34 582.267 42.994 609.3 58.7003ZM367.337 467.33L550.667 650.663C578.28 678.277 623.053 678.277 650.667 650.663C678.28 623.05 678.28 578.277 650.667 550.663L499.843 399.843C489.167 398.833 478.757 396.907 468.693 394.143C455.723 390.583 441.497 393.17 431.99 402.677L367.337 467.33Z" stroke="#FFC61E" stroke-width="66.6667" stroke-linecap="round" stroke-linejoin="round"></path></svg> 