<?xml version="1.0" standalone="no"?>
<!DOCTYPE svg PUBLIC "-//W3C//DTD SVG 20010904//EN"
 "http://www.w3.org/TR/2001/REC-SVG-20010904/DTD/svg10.dtd">
<svg version="1.0" xmlns="http://www.w3.org/2000/svg"
 width="61.000000pt" height="40.000000pt" viewBox="0 0 61.000000 40.000000"
 preserveAspectRatio="xMidYMid meet">

<g transform="translate(-10.000000,40.000000) scale(0.124000,-0.124000)"
fill="#e74d10" stroke="none">
<path d="M0 200 l0 -200 305 0 305 0 0 200 0 200 -305 0 -305 0 0 -200z m417
102 c8 -19 9 -31 3 -27 -5 3 -10 12 -10 20 0 8 -10 21 -22 30 -20 15 -21 16
-4 13 11 -2 26 -18 33 -36z m38 -20 c-8 -9 -25 20 -18 31 3 5 10 2 15 -7 6
-10 7 -20 3 -24z m-60 -13 c19 -17 22 -26 14 -40 -10 -20 -39 -25 -54 -10 -6
5 -19 11 -30 13 -18 4 -17 6 8 18 15 7 27 19 27 27 0 18 6 17 35 -8z m-192
-19 c53 -27 56 -30 37 -40 -17 -9 -27 -8 -46 5 -13 8 -24 22 -24 30 0 8 -8 19
-17 24 -36 21 -6 10 50 -19z m114 8 c-28 -22 -53 -22 -96 1 l-34 18 76 -1 c74
-1 76 -1 54 -18z m-161 -20 c3 -5 4 -12 1 -14 -7 -7 -47 15 -47 25 0 11 38 2
46 -11z m364 12 c11 -7 4 -10 -25 -10 -29 0 -36 3 -25 10 8 5 20 10 25 10 6 0
17 -5 25 -10z m-60 -43 c0 -4 -6 -2 -14 5 -8 7 -12 17 -9 22 5 8 23 -12 23
-27z m-163 -12 c-20 -14 -37 -32 -37 -40 0 -16 -71 -39 -98 -32 -9 2 5 7 31
12 39 6 51 13 59 34 6 14 11 29 10 33 -1 4 4 5 12 2 8 -3 17 -1 21 5 3 6 14
11 23 11 10 0 2 -10 -21 -25z m53 0 c0 -8 -7 -15 -15 -15 -13 0 -14 3 -3 15
16 18 18 18 18 0z m-157 -10 c9 -4 17 -14 17 -23 0 -13 -2 -13 -18 1 -39 35
-102 9 -102 -41 0 -59 71 -84 108 -37 25 32 35 32 21 1 -14 -31 -46 -42 -101
-38 -19 2 -45 47 -43 72 1 8 3 23 3 32 4 34 67 53 115 33z m344 6 c15 -1 40
-49 38 -71 -1 -8 -3 -23 -3 -33 -2 -16 -34 -35 -71 -43 -22 -4 -59 17 -66 40
-15 45 -9 83 15 96 17 9 21 6 35 -27 11 -25 12 -40 5 -47 -7 -7 -10 -3 -10 11
0 12 -3 29 -6 37 -9 24 -34 0 -34 -32 0 -54 62 -81 102 -45 35 31 12 103 -33
103 -10 0 -20 4 -23 9 -3 4 5 7 17 6 12 -1 28 -3 34 -4z m-214 -36 c1 -5 -6
-11 -15 -13 -11 -2 -18 3 -18 13 0 17 30 18 33 0z m194 -37 c-3 -8 -6 -5 -6 6
-1 11 2 17 5 13 3 -3 4 -12 1 -19z"/>
</g>
</svg>
