<?xml version="1.0" standalone="no"?>
<!DOCTYPE svg PUBLIC "-//W3C//DTD SVG 20010904//EN"
 "http://www.w3.org/TR/2001/REC-SVG-20010904/DTD/svg10.dtd">
<svg version="1.0" xmlns="http://www.w3.org/2000/svg"
 width="357.000000pt" height="302.000000pt" viewBox="0 0 357.000000 302.000000"
 preserveAspectRatio="xMidYMid meet">

<g transform="translate(0.000000,302.000000) scale(0.100000,-0.100000)"
fill="#000000" stroke="none">
<path d="M1376 2839 c-9 -13 -16 -29 -16 -35 0 -6 -11 -19 -24 -27 -13 -9 -32
-37 -41 -62 -16 -41 -21 -45 -50 -45 -18 0 -44 -9 -58 -20 -58 -46 -231 -355
-247 -441 -5 -30 -14 -102 -20 -160 -13 -136 -8 -152 65 -184 35 -16 59 -34
69 -52 24 -46 56 -70 171 -124 61 -28 112 -53 114 -55 1 -1 -9 -39 -24 -83
l-27 -81 -76 8 c-42 4 -138 7 -212 7 -155 0 -206 -14 -289 -76 -28 -21 -66
-41 -85 -45 -26 -4 -36 -11 -36 -25 0 -17 9 -19 106 -19 97 0 106 -1 99 -17
-19 -46 -17 -50 49 -93 66 -42 84 -70 46 -70 -12 0 -31 7 -44 15 -25 17 -24
17 -64 -30 -9 -11 -23 -13 -52 -9 -33 5 -41 3 -46 -12 -12 -40 -22 -49 -60
-54 -34 -4 -39 -8 -39 -32 -1 -34 -22 -58 -50 -58 -27 0 -39 -24 -26 -49 12
-21 2 -39 -30 -55 -28 -13 -38 -53 -16 -62 19 -7 10 -44 -15 -62 -21 -15 -24
-48 -4 -59 22 -13 28 -49 11 -63 -21 -18 -19 -47 5 -55 29 -9 43 -40 29 -63
-17 -27 -4 -52 25 -52 27 0 39 -20 40 -65 1 -25 5 -30 28 -30 34 -1 58 -22 58
-51 0 -25 35 -43 52 -26 15 15 58 -7 58 -30 0 -24 27 -34 51 -20 28 18 53 14
67 -8 14 -23 47 -27 59 -7 14 23 50 27 69 6 13 -14 21 -16 35 -8 11 5 19 16
19 25 0 20 40 34 61 21 22 -14 49 -2 49 21 0 28 27 46 66 44 35 -3 38 1 35 44
-2 25 15 41 49 46 21 2 25 9 26 38 1 55 2 57 29 64 18 5 25 13 25 31 0 13 -4
27 -10 30 -17 10 -11 44 9 54 30 16 35 44 12 63 -25 20 -27 56 -4 73 20 15 11
45 -17 52 -25 7 -33 34 -19 66 12 27 22 30 149 43 36 3 79 15 96 25 45 27 178
169 191 204 6 17 16 115 22 218 l10 189 36 44 37 44 55 -47 c30 -26 59 -57 63
-68 10 -26 -6 -55 -30 -55 -30 0 -52 -28 -39 -51 14 -27 2 -58 -27 -69 -24
-10 -33 -43 -14 -55 17 -10 11 -50 -10 -68 -25 -21 -25 -32 -1 -49 24 -17 30
-50 13 -71 -19 -23 -11 -51 15 -55 26 -4 38 -34 24 -59 -13 -25 4 -53 33 -53
25 0 41 -23 37 -53 -3 -26 19 -48 40 -42 23 8 62 -12 56 -28 -11 -32 41 -65
58 -37 6 10 55 -7 53 -19 -2 -22 5 -31 26 -31 14 0 28 5 31 10 11 17 50 11 63
-10 16 -26 48 -26 62 0 11 20 60 29 60 10 0 -5 11 -10 25 -10 18 0 28 7 35 24
10 27 37 37 61 22 24 -14 49 0 49 27 0 29 24 52 46 43 8 -3 25 -1 36 5 15 8
18 17 13 36 -7 31 10 53 42 53 28 0 41 25 24 52 -14 23 -4 45 29 61 30 15 35
31 15 50 -21 22 -19 54 5 67 11 6 20 19 20 30 0 11 -9 24 -20 30 -24 13 -26
47 -5 70 18 20 10 50 -14 50 -25 0 -41 39 -28 67 12 26 -5 53 -33 53 -24 0
-40 22 -34 46 7 25 -19 48 -45 41 -22 -5 -47 17 -53 48 -3 15 -12 20 -38 21
-63 2 -68 4 -73 24 -7 26 -33 36 -54 19 -21 -18 -54 -12 -71 12 -17 24 -28 24
-49 -1 -18 -21 -58 -27 -68 -10 -11 18 -44 11 -56 -12 -17 -33 -29 -38 -71
-31 -39 6 -39 5 -42 -37 -2 -34 -36 -18 -95 46 -33 37 -61 70 -61 74 0 4 54
44 121 90 110 75 119 83 102 96 -25 19 -71 17 -120 -6 l-43 -19 -12 22 c-31
59 -108 63 -108 6 0 -9 -6 -21 -13 -27 -21 -18 -123 92 -131 141 -6 32 -13 41
-44 54 -20 8 -78 45 -129 82 -79 57 -94 72 -103 106 -6 22 -22 74 -36 115 -32
98 -31 110 4 78 44 -42 109 -70 132 -58 26 14 67 69 75 102 7 28 13 25 -84 44
-40 7 -65 37 -57 68 13 52 101 71 186 41 50 -18 55 -15 46 19 -12 48 -66 96
-164 143 -117 57 -181 67 -206 32z m114 -767 c80 -38 100 -51 100 -68 0 -12 9
-33 20 -47 26 -33 25 -137 -2 -137 -5 0 -57 42 -115 94 -59 52 -133 110 -164
128 -32 18 -58 38 -58 43 0 6 12 23 28 38 16 15 35 49 42 75 l13 47 18 -63 19
-62 99 -48z m322 -225 c6 -12 6 -23 -2 -32 -10 -12 -16 -11 -41 7 -31 23 -37
46 -17 66 13 13 41 -6 60 -41z m108 -17 c0 -5 -9 -14 -20 -20 -15 -8 -20 -8
-20 3 0 8 3 17 7 20 10 10 33 8 33 -3z m-145 -321 c15 -24 -7 -20 -55 11 -49
31 -56 40 -44 53 7 7 88 -46 99 -64z m737 3 c70 -31 141 -102 173 -174 65
-144 18 -314 -113 -408 -131 -95 -336 -74 -441 46 -68 78 -86 125 -86 229 0
93 16 142 65 205 l19 25 56 -56 57 -56 -21 -34 c-42 -69 -18 -181 50 -230 34
-24 117 -37 163 -25 60 15 126 104 126 171 0 46 -34 109 -74 140 -43 33 -115
43 -171 25 -37 -12 -37 -12 -86 36 -27 27 -49 54 -49 61 0 13 37 35 99 59 52
20 174 13 233 -14z m-741 -68 c6 -8 8 -14 3 -14 -16 1 -144 86 -138 92 7 7
117 -57 135 -78z m-75 -1 l77 -46 -7 -111 c-8 -120 -12 -131 -93 -225 -28 -33
-38 -39 -49 -30 -19 16 -18 33 5 53 13 12 22 38 27 72 3 30 9 54 13 54 16 0
41 62 41 104 0 54 -25 86 -68 86 -22 0 -32 -7 -45 -35 -15 -32 -20 -35 -62
-35 -25 0 -45 4 -45 8 0 9 118 152 125 152 2 0 39 -21 81 -47z m699 -113 c0
-22 -29 -18 -33 3 -3 14 1 18 15 15 10 -2 18 -10 18 -18z m-1142 -7 c2 -5 -3
-39 -11 -76 -12 -54 -18 -67 -30 -62 -9 3 -60 34 -113 68 -96 61 -97 62 -66
68 47 9 215 10 220 2z m1049 -45 c-16 -16 -37 4 -28 28 6 16 8 16 23 1 13 -13
15 -19 5 -29z m188 17 c0 -19 -20 -29 -32 -17 -15 15 -2 43 17 36 8 -3 15 -12
15 -19z m-71 -25 c10 -5 24 -22 30 -39 33 -77 -76 -141 -128 -75 -12 15 -21
37 -21 49 0 36 37 75 71 75 17 0 38 -4 48 -10z m-151 -67 c-2 -10 -10 -18 -18
-18 -8 0 -16 8 -18 18 -2 12 3 17 18 17 15 0 20 -5 18 -17z m258 6 c3 -6 1
-16 -4 -21 -13 -13 -45 8 -36 23 7 12 31 11 40 -2z m-221 -99 c0 -8 -8 -16
-17 -18 -13 -2 -18 3 -18 18 0 15 5 20 18 18 9 -2 17 -10 17 -18z m180 0 c0
-22 -29 -18 -33 3 -3 14 1 18 15 15 10 -2 18 -10 18 -18z m-87 -37 c-2 -10
-10 -18 -18 -18 -8 0 -16 8 -18 18 -2 12 3 17 18 17 15 0 20 -5 18 -17z
m-1369 -71 c23 -9 44 -21 44 -26 1 -5 -17 -35 -38 -67 l-40 -59 -58 0 c-64 0
-87 -9 -130 -49 -62 -57 -75 -141 -35 -213 80 -141 289 -111 329 48 10 39 15
44 80 73 82 35 85 33 76 -58 -7 -77 -35 -139 -91 -199 -99 -106 -257 -138
-382 -77 -210 103 -263 363 -109 533 68 76 147 111 250 111 33 0 80 -8 104
-17z m91 -76 c0 -17 -15 -37 -49 -65 -27 -23 -52 -38 -55 -33 -5 8 89 122 100
122 2 0 4 -11 4 -24z m116 -121 c8 -31 13 -26 -63 -64 -72 -36 -73 -36 -73
-17 0 15 104 106 121 106 5 0 11 -11 15 -25z m-291 -5 c0 -8 -8 -16 -17 -18
-13 -2 -18 3 -18 18 0 15 5 20 18 18 9 -2 17 -10 17 -18z m-89 -31 c7 -12 -15
-31 -28 -23 -4 3 -8 12 -8 20 0 17 26 19 36 3z m180 0 c7 -12 -15 -31 -28 -23
-4 3 -8 12 -8 20 0 17 26 19 36 3z m-56 -39 c12 -12 20 -33 20 -55 0 -46 -29
-75 -74 -75 -39 0 -76 37 -76 75 0 12 9 34 21 49 26 33 79 36 109 6z m-162
-57 c-2 -10 -10 -18 -18 -18 -8 0 -16 8 -18 18 -2 12 3 17 18 17 15 0 20 -5
18 -17z m260 0 c5 -17 -26 -29 -40 -15 -6 6 -7 15 -3 22 9 14 37 9 43 -7z
m-223 -93 c0 -22 -29 -18 -33 3 -3 14 1 18 15 15 10 -2 18 -10 18 -18z m180 0
c0 -22 -29 -18 -33 3 -3 14 1 18 15 15 10 -2 18 -10 18 -18z m-88 -26 c9 -23
-13 -40 -32 -24 -12 10 -13 16 -4 26 15 18 28 18 36 -2z"/>
<path d="M1560 2627 c-14 -7 -26 -23 -28 -35 -4 -25 24 -39 92 -48 38 -5 42
-3 64 30 12 20 22 38 22 40 0 8 -64 26 -94 26 -17 0 -42 -6 -56 -13z"/>
</g>
</svg>
