<?xml version="1.0" encoding="UTF-8" standalone="no"?>
<svg
   version="1.1"
   width="595.27557pt"
   height="419.52759pt"
   id="svg20"
   viewBox="0 0 595.27557 419.52759"
   sodipodi:docname="-rr2x12cg3btcouhk.cdr"
   xmlns:inkscape="http://www.inkscape.org/namespaces/inkscape"
   xmlns:sodipodi="http://sodipodi.sourceforge.net/DTD/sodipodi-0.dtd"
   xmlns="http://www.w3.org/2000/svg"
   xmlns:svg="http://www.w3.org/2000/svg">
  <defs
     id="defs20" />
  <sodipodi:namedview
     id="namedview20"
     pagecolor="#ffffff"
     bordercolor="#000000"
     borderopacity="0.25"
     inkscape:showpageshadow="2"
     inkscape:pageopacity="0.0"
     inkscape:pagecheckerboard="0"
     inkscape:deskcolor="#d1d1d1"
     inkscape:document-units="pt" />
  <g
     id="Layer1000">
    <path
       d="m 243.5634,176.8123 18.702,-12.9998 8.1028,-5.6278 -4.9955,6.8399 10.5895,17.7493 14.1618,-24.9356 h 18.3554 l 10e-4,2.9438 0.0166,-0.009 -0.0146,1.3543 -0.5792,0.4728 -0.4988,0.5195 -0.2419,0.0866 -0.9469,0.8658 -2.0161,1.5585 -25.702,21.0394 0.0179,0.0866 -11.7145,9.524 -2.2553,-3.3767 0.051,5.2815 -21.4507,17.4738 z m 24.8638,21.8927 20.9648,-17.1432 19.0488,-15.5194 -0.0597,5.5599 -0.1419,0.1757 0.0299,10.2509 -0.1946,18.1322 -12.6967,10.4056 -8.8931,7.1679 h -0.2351 l 0.3267,-24.2245 -10.7715,16.1908 z m -24.66,-40.8667 h 15.7934 l 0.5224,-0.2386 h 5.6709 l -8.7879,6.1262 -3.6556,2.4243 -9.7059,6.8417 z m 1.5007,59.8963 19.3182,-15.8261 -0.0703,15.8261 z m 46.1026,-0.1547 4.1696,-3.2901 12.493,-10.2814 -0.1473,13.7262 h -16.7017 z m 65.7566,-15.325 -0.3979,-32.5548 h -2.5109 l 16.1252,-12.4364 h 1.0861 l -2.3442,3.0855 5.3586,4.3047 0.5195,23.8131 z m -31.5134,-10.4765 18.8169,-14.5457 0.4747,28.3123 h 8.0522 l -15.836,12.208 -11.3493,-9.2642 z m -0.318,-25.4551 8.1391,-9.0596 H 365.19 l 0.0665,0.0551 -13.8886,10.7362 -2.1892,1.5585 0.0178,0.0866 h -4.6754 l -0.0288,3.6364 -18.9042,14.5357 c -0.3863,-6.8993 -0.1912,-11.7224 -0.2924,-21.5489 z m 16.7112,51.4787 30.0849,-23.1663 2.9564,-2.2854 0.2722,12.4813 c 0.008,0.7812 0.0149,1.5096 0.0192,2.1853 0.005,0.8658 0.007,1.5729 0.005,2.1212 -0.002,0.5484 0.002,0.8514 0.0144,0.9091 l -10.0744,7.7548 z m 91.5454,-60.5383 0.2156,14.8606 h -14.8921 l 0.3562,9.6972 0.2312,14.5458 -0.2741,3.2201 -19.506,15.0487 -0.5245,-36.1047 0.0299,-2.8085 23.8462,-18.4592 z m -49.2282,13.9948 -0.2101,-13.9948 h 34.053 l -18.3956,14.168 z m 16.296,46.5435 17.9046,-13.8155 h 0.0866 l 0.9647,-0.7792 0.1445,9.0911 -4.1985,5.5036 z m 76.7693,-15.5471 -0.3979,-32.5548 h -2.5109 l 13.3749,-10.3152 c 0,0 1.4923,0.9643 1.4923,0.9643 l 5.5147,4.4301 0.3065,14.0511 0.1068,6.8873 0.043,-0.0201 0.0579,2.6528 z m -31.3645,-10.5915 18.668,-14.4307 0.4748,28.3123 h 8.0521 l -15.836,12.208 -11.1593,-9.1091 z m -0.3002,-25.5256 7.9724,-8.8741 h 31.7553 l 0.0664,0.0551 -13.8886,10.7362 -2.1892,1.5585 0.0179,0.0866 h -4.6755 l -0.0287,3.6364 -18.7756,14.4367 z m 16.5446,51.6642 30.0849,-23.1663 3.1072,-2.402 0.0519,2.3805 c 0.021,2.2906 0.0377,4.4046 0.05,6.3419 -0.005,1.0967 -6e-4,2.1646 0.0118,3.2036 0.0124,1.039 0.0213,1.9914 0.0269,2.8572 0.006,0.8658 0.007,1.5729 0.005,2.1212 -0.002,0.5484 0.003,0.8514 0.0145,0.9091 l -10.0745,7.7548 z"
       style="fill:#ea570f;fill-rule:evenodd"
       id="path1" />
    <path
       d="m 112.9114,249.2095 -34.586,-22.3251 0.1372,65.0733 h 15.6176 l -0.0766,-36.341 18.7468,12.2138 10.2539,-6.5437 -0.0799,-0.0956 24.717,-16.2932 -0.038,-18.0136 z m 19.1465,11.8524 0.0652,30.8958 h 15.6175 l -0.0868,-41.1765 z m 80.4728,30.8958 h 18.0203 l -35.0766,-65.0733 -34.9022,65.0733 h 18.0203 l 4.686,-9.1103 h 24.5277 z m -22.9708,-21.3241 5.9827,-11.4128 5.9307,11.4128 z m 84.9205,-43.7492 c -9.3104,0 -13.6153,0 -15.6175,0 h -15.6176 l 0.0935,44.3499 0.0437,20.7234 h 15.6176 l -0.0437,-20.7234 c 4.405,0 9.6108,0 15.4174,0 17.2194,0 23.3991,-12.9145 23.3797,-22.1249 -0.0211,-10.0113 -7.255,-22.225 -23.2731,-22.225 z m 7.3668,27.7312 c -0.6993,0.7008 -1.3991,1.2013 -2.299,1.7019 -1.4003,0.6007 -3.1016,0.901 -5.204,0.901 h -15.4174 l -0.0344,-16.3184 H 274.51 c 3.2036,0 5.5079,0.8009 7.1135,2.603 1.5053,1.7019 2.1108,4.0045 2.1142,5.6063 0.003,1.5017 -0.4925,3.8043 -1.8905,5.5062 z m 70.8755,37.3421 h 22.1249 L 340.935,256.6178 370.7059,226.8844 H 348.581 l -25.8746,25.9292 -0.0546,-25.9292 h -15.6176 l 0.1372,65.0733 h 15.6176 l -0.0359,-17.0192 7.0928,-7.2081 z m 47.5168,-25.5288 h 25.3286 l -0.0296,-14.0158 H 400.21 l -0.0243,-11.513 h 95.2114 l -0.0296,-14.0157 h -110.829 l 0.1373,65.0733 h 45.4512 l -0.0296,-14.0158 h -29.8336 z m 73.6497,-23.927 -0.033,-15.6175 h -15.8326 l 0.0329,15.6175 h 0.2151 l 0.1042,49.4558 h 15.6176 z"
       style="fill:#c7a76e;fill-rule:evenodd"
       id="path2" />
    <rect
       x="455.527"
       y="226.8"
       width="19.6176"
       height="15.6176"
       style="fill:#c7a76e"
       id="fix-t-letter" />
    <g
       id="Layer1001">
      <path
         d="m 170.0546,182.417 c 0.6011,-0.05 2.3718,-1.029 2.7926,-1.7918 0.1493,-0.2707 0.2287,-0.4604 0.3466,-0.76 0.7267,-1.8462 1.7125,-3.6298 2.8045,-5.2577 0.6441,-0.9601 1.2067,-1.7622 1.9148,-2.6697 l 1.567,-1.8317 c 0.5502,-0.5443 1.0971,-1.2836 1.7193,-1.7585 l 1.2041,-1.0881 c 0.8177,-0.7283 1.6414,-1.3872 2.5441,-2.0403 0.4401,-0.3184 2.4178,-1.6668 2.8123,-1.7722 l 2.6861,6.0085 c 0.3733,0.8312 1.4065,2.8806 1.5821,3.6346 -0.2409,0.0561 -0.1985,0.0536 -0.3754,0.1779 -0.361,0.2535 -0.8102,0.3857 -0.8102,0.9287 0,0.1796 0.5461,0.8154 0.6323,1.1856 -0.453,0.121 -0.8859,0.6949 -1.2646,0.9485 -0.1456,-0.2173 -0.8025,-0.9485 -1.1066,-0.9485 -0.1339,0 -0.2954,0.1053 -0.3952,0.1581 -0.0704,-0.3021 -0.2654,-0.6939 -0.3952,-0.9485 -0.1643,-0.3222 -0.273,-0.6319 -0.4475,-0.9753 -0.6335,-1.2468 -1.1119,-2.5486 -1.7397,-3.7932 -0.3304,-0.6551 -0.5655,-1.3266 -0.8954,-1.95 -0.3602,0.0839 -1.6368,0.9383 -1.818,1.1856 0.1227,0.5268 1.2538,2.8488 1.6068,3.6099 l 0.5804,1.2376 c 0.8056,1.5972 1.4073,3.3026 2.2391,4.8746 -0.1726,0.2578 -0.4597,0.5326 -0.6323,0.7904 -1.6205,-0.8575 -1.2109,-1.0819 -2.1697,0.3597 -0.1865,0.2805 -0.7519,0.8934 -0.6285,1.2454 0.1573,0.4483 0.8045,0.5765 1.0593,0.9242 -0.0474,0.2035 -0.5785,1.1717 -0.7114,1.4228 -0.5225,-0.2765 -1.373,-0.7634 -1.7167,-0.0569 -0.1189,0.2442 -0.7336,1.7574 -0.7336,1.9539 0,0.4834 0.939,0.7751 1.3437,0.8694 -0.1067,0.2226 -0.3092,0.7939 -0.3161,1.1066 -0.8059,0 -1.5188,-0.512 -1.7443,0.3109 -0.0968,0.3537 -0.3899,1.6104 -0.3899,1.9813 0,0.5403 0.6996,0.5394 1.0435,0.6165 0.2186,0.049 0.23,0.0759 0.4583,0.0949 -0.1142,0.238 -0.1581,1.1807 -0.1581,1.5808 -2.1004,0 -1.6598,0.1361 -1.6598,2.4503 0,0.7996 1.1254,0.5533 1.6598,0.5533 0,0.6204 0.0791,0.8988 0.0791,1.5018 -1.7717,0.4127 -1.6137,0.1593 -1.1534,2.339 0.255,1.2072 0.8458,0.8045 1.7857,0.5855 0.1144,0.491 0.2798,1.1756 0.4743,1.5808 -0.38,0.0886 -1.3437,0.4212 -1.3437,0.8695 0,0.2829 0.6074,1.6017 0.7591,1.9283 0.1841,0.3962 0.354,0.4985 0.8038,0.3536 0.2993,-0.0964 0.6169,-0.3035 0.9664,-0.3849 l 0.5015,1.0141 c -0.7497,0.9601 -1.7787,0.2317 -0.4698,2.1949 0.5372,0.8057 0.6629,1.3433 1.5499,0.7439 0.211,-0.1426 0.4207,-0.2548 0.6316,-0.396 l 0.9485,1.1856 c -0.1451,0.5432 -0.8695,0.6008 -0.8695,1.2647 0,0.1885 1.5499,1.8179 1.897,1.8179 0.4997,0 0.8361,-0.6354 1.1856,-0.8694 0.1732,0.1504 0.3067,0.2825 0.5078,0.4407 0.222,0.1746 0.3218,0.3548 0.5988,0.4287 -0.3161,0.5974 -1.114,1.2541 -0.3354,1.758 1.6455,1.0647 1.8465,1.7558 2.7857,-0.0191 0.1581,0.0369 1.4227,0.6691 1.4227,0.7904 0,0.3308 -0.3952,0.8451 -0.3952,1.1857 0,0.5055 1.4149,0.8924 1.8509,1.0747 1.0649,0.4453 0.9969,-0.4112 1.3898,-1.1538 0.3743,0.0872 0.7016,0.2218 1.1066,0.3162 0,0.9346 -0.6723,1.4895 0.5997,1.7716 2.0585,0.4565 1.9677,0.733 2.4039,-1.1393 0.5016,0.0112 1.011,0.1581 1.5808,0.1581 0,1.109 -2e-4,1.4752 0.4384,1.5808 h 2.17 c 0.5851,0 0.3952,-1.2254 0.3952,-1.5808 0.5425,0 1.0232,-0.1182 1.5018,-0.1581 0.006,0.2621 0.1545,0.9457 0.2222,1.1216 0.2452,0.6381 1.2884,0.2213 2.0122,0.0853 0.1704,-0.032 0.4397,-0.0749 0.5816,-0.1297 0.1651,-0.0638 0.3456,-0.205 0.3456,-0.3658 0,-0.2812 -0.1534,-1.0903 -0.2371,-1.2647 0.0907,-0.0435 1.4879,-0.4665 1.5808,-0.4742 0.0721,0.3091 0.3718,1.2646 0.7905,1.2646 0.4843,0 0.9266,-0.2922 1.355,-0.4629 1.2019,-0.4791 1.284,-0.6055 0.621,-1.9873 0.1887,-0.0999 0.2957,-0.16 0.5123,-0.2781 0.241,-0.1315 0.3127,-0.2096 0.5943,-0.2752 0.0691,0.2587 0.2333,0.428 0.3774,0.6501 0.6272,0.9665 1.2868,0.0865 2.3601,-0.6002 0.8803,-0.5632 -0.1058,-1.1094 -0.2872,-1.7888 0.2782,-0.0743 0.1376,-0.0444 0.3437,-0.2096 0.1228,-0.0984 0.1934,-0.1481 0.3062,-0.2471 0.2093,-0.1836 0.3935,-0.3437 0.6147,-0.4918 0.5631,0.377 0.9051,1.344 1.6039,0.6564 0.2482,-0.2443 1.3997,-1.2446 1.3997,-1.5259 0,-0.6125 -0.5454,-0.7808 -0.8695,-1.2647 0.1641,-0.2449 0.728,-0.9589 0.9486,-1.1066 1.3067,0.6915 1.1474,1.0849 2.0708,-0.3004 0.8948,-1.3423 1.0145,-1.2743 -0.411,-2.2289 0.0547,-0.2047 0.5783,-1.1712 0.7114,-1.4227 1.1447,0.2667 1.3706,0.9769 1.9309,-0.4404 0.5361,-1.3564 1.1484,-1.8849 -0.7453,-2.3261 0.0299,-0.3592 0.2338,-0.8318 0.3162,-1.1856 2.1659,0.5046 1.5743,-0.0449 2.0269,-1.8509 0.0738,-0.2944 0.1599,-0.4099 -0.009,-0.6346 -0.2011,-0.268 -0.9554,-0.4295 -1.3857,-0.439 0,-0.5742 0.1467,-1.1462 0.1581,-1.6599 1.107,0 1.4743,0.0548 1.5808,-0.3473 v -2.182 c 0,-0.6046 -1.166,-0.4743 -1.5808,-0.4743 -0.01,-0.427 -0.1581,-0.978 -0.1581,-1.4227 0.2142,-0.1028 0.5425,-0.1245 0.8399,-0.1877 0.7801,-0.1657 0.6689,-0.4701 0.5378,-1.111 -0.1047,-0.512 -0.1109,-1.863 -0.7454,-1.863 -0.5545,0 -0.7556,0.1581 -1.2646,0.1581 -0.0464,-0.5577 -0.3477,-0.9303 -0.3952,-1.5018 1.3852,-0.7329 1.5733,-0.3801 0.8123,-2.156 -0.6008,-1.4023 -0.6869,-1.3042 -1.998,-0.6104 -0.123,-0.2326 -0.5043,-0.8964 -0.5532,-1.1066 1.3251,-0.8874 1.3492,-0.8218 0.4742,-2.1341 -0.9558,-1.4335 -0.7515,-1.1268 -2.1341,-0.3953 -0.2273,-0.1522 -0.8687,-0.9484 -1.0276,-1.1856 0.3935,-0.5876 1.3508,-0.9221 0.6153,-1.6417 -0.1762,-0.1725 -1.3944,-1.4409 -1.4847,-1.4409 -0.573,0 -0.9469,0.6828 -1.3437,0.9485 -0.144,-0.2151 -0.2713,-0.3203 -0.4735,-0.475 -0.1421,-0.1086 -0.4584,-0.3429 -0.5541,-0.4735 0.1526,-0.5713 1.0349,-1.1665 0.3845,-1.6491 l -1.3793,-0.9139 c -0.8489,-0.574 -1.153,0.1822 -1.5345,0.9031 -0.3975,-0.2103 -0.9579,-0.6726 -1.4227,-0.7113 0.0485,-0.5836 0.8138,-1.3982 0.0322,-1.7712 -0.2324,-0.1109 -0.472,-0.1895 -0.6767,-0.2718 -1.099,-0.442 -1.6982,-1.0407 -2.122,0.7783 -0.3538,-0.008 -0.9378,-0.1973 -1.1856,-0.3162 0.1593,-0.6837 0.4607,-1.4304 -0.2485,-1.6484 -0.2544,-0.0783 -1.8205,-0.4067 -2.0437,-0.4067 -0.5473,0 -0.4681,0.9628 -0.6436,1.3334 -0.1215,0.2565 -0.1888,0.1404 -0.6744,0.0665 -0.3067,-0.0466 -0.5557,-0.0561 -0.9742,-0.0561 0,-1.9921 0.0831,-1.6599 -2.3713,-1.6599 -0.8193,0 -0.6323,1.0858 -0.6323,1.6599 -0.6252,0 -0.9279,0.079 -1.5018,0.079 0,-1.9022 -0.8142,-1.3738 -2.044,-1.1746 -1.5371,0.249 -0.9083,0.5598 -0.8805,1.8069 -0.2264,0.0528 -0.5234,0.1469 -0.7114,0.2372 0.4115,0.7775 0.7925,0.3181 1.6265,2.3256 0.2086,0.502 0.3959,0.8862 0.5976,1.3783 0.1845,0.45 0.506,0.9382 0.6214,1.4337 0.8495,-0.0706 1.5798,-0.3952 2.9245,-0.3952 3.9234,0 5.6495,0.3567 8.9312,1.9766 l 1.9132,1.1695 c 0.8997,0.6131 1.5021,1.1777 2.2568,1.9324 2.945,2.945 4.9993,7.2065 4.9993,11.5203 0,3.9279 -0.6274,6.1941 -2.3193,9.2998 -0.7133,1.3094 -1.6806,2.4857 -2.7196,3.5246 -2.8967,2.8968 -7.3008,5.0389 -11.5598,5.0389 -2.8356,0 -5.4782,-0.3646 -7.9578,-1.6062 -0.4938,-0.2472 -0.8811,-0.4345 -1.3444,-0.7106 -2.9787,-1.775 -5.5558,-4.4474 -6.9793,-7.6434 -1.0782,-2.4209 -1.5818,-4.6334 -1.5818,-7.7451 0,-4.5812 2.0977,-8.7422 5.2358,-11.9162 l 1.3246,-1.1256 c 0.0671,0.288 0.1234,0.4018 0.2369,0.6325 0.6772,1.3766 1.2034,2.8261 1.8708,4.2155 0.367,0.7641 2.0815,4.5329 2.0815,4.8741 l -0.4184,0.7672 c -0.4028,0.9357 -0.6317,1.907 -0.6866,2.9545 -0.0653,1.2459 0.4755,2.7247 1.0248,3.7884 0.9836,1.9048 3.6156,3.7928 5.9293,3.7928 1.6892,0 2.5644,-0.0619 4.0839,-0.8166 1.628,-0.8085 2.7611,-2.1237 3.5032,-3.7686 0.2748,-0.6089 0.6841,-2.1799 0.6002,-3.0481 -0.059,-0.6119 -0.0723,-1.1116 -0.2018,-1.6169 -0.2402,-0.9372 -0.5912,-1.7329 -1.1236,-2.5123 -1.2153,-1.7793 -3.2657,-3.2554 -5.9134,-3.2554 0.4591,0.8677 0.8443,1.8685 1.2419,2.7892 0.406,0.9401 1.9988,4.1965 1.9988,4.8779 0,1.0607 -0.4518,2.215 -1.0851,2.867 -0.3124,0.3217 -0.5738,0.6127 -0.9943,0.8236 -1.1632,0.5837 -3.414,0.3162 -4.0859,-0.6871 0.374,0.0872 0.7625,0.2372 1.2647,0.2372 1.8456,0 3.2317,-1.9617 2.24,-4.058 l -2.1344,-4.8212 c -1.6737,-3.5821 -3.1911,-7.2421 -4.796,-10.8542 -0.3423,-0.7703 -0.9371,-2.3624 -1.3821,-2.9652 -1.1569,-1.567 -0.2465,0.6258 -1.7006,-2.6467 -0.1931,-0.4346 -0.3667,-0.7815 -0.5374,-1.2016 -0.1528,-0.3761 -0.3698,-0.8174 -0.5408,-1.198 l -1.6086,-3.6082 c -0.2006,-0.4176 -0.3462,-0.8054 -0.5282,-1.2107 l -2.1555,-4.8002 c -0.2704,-0.628 -1.5207,-3.2086 -1.5581,-3.6586 -0.5748,0.1535 -3.2929,3.1442 -4.0321,3.7931 -0.8061,0.7076 -1.5567,1.5153 -2.2777,2.3067 -0.0784,0.086 -0.1056,0.1182 -0.1905,0.2047 -0.6946,0.7077 -1.4835,1.3947 -2.1344,2.1338 -0.1484,0.1686 -0.1581,0.2252 -0.3158,0.3956 l -6.4427,7.0734 c -0.6849,0.7366 -1.2217,1.6245 -1.9365,2.3317 -0.4703,0.4654 -0.6472,1.3602 -0.8157,2.0299 -0.1085,0.4314 -0.1727,0.7608 -0.2714,1.1513 -0.3622,1.433 -0.6545,3.3479 -0.7903,4.9797 z"
         style="fill:#c7a76e;fill-rule:evenodd"
         id="path3" />
      <path
         d="m 100.8933,169.6913 v 1.0276 c -0.6252,0 -0.9279,0.079 -1.5018,0.079 -0.1572,-1.8896 -0.6675,-1.4134 -1.9872,-1.1967 -1.4547,0.2388 -1.2739,0.3845 -0.9373,1.829 -0.2563,0.0214 -1.3744,0.3752 -1.5809,0.4743 -0.0369,-0.1584 -0.333,-0.8622 -0.4243,-0.9989 -0.437,-0.6539 -1.3254,-0.004 -1.9136,0.2418 -0.5089,0.2131 -0.8237,0.1801 -0.8237,0.8361 0,0.3275 0.3182,0.7763 0.3952,1.1066 -0.3752,0.1002 -0.6319,0.4347 -1.1066,0.4742 -0.1869,-0.279 -0.5229,-0.944 -0.8524,-1.0439 -0.2935,-0.0891 -2.2405,1.1073 -2.2652,1.5285 -0.0187,0.3184 0.4864,0.9841 0.6673,1.2544 -0.4306,0.2883 -0.8511,0.7506 -1.2646,1.0275 -0.2459,-0.3672 -0.7666,-0.9485 -1.2647,-0.9485 -0.0903,0 -1.3085,1.2684 -1.4848,1.4409 -0.7348,0.719 0.2174,1.0475 0.6153,1.6417 -0.1434,0.2142 -0.2695,0.2864 -0.442,0.5065 -0.1726,0.2204 -0.2847,0.387 -0.4274,0.6001 -0.6342,-0.1693 -1.2134,-1.1731 -1.7588,-0.3362 -0.7157,1.0984 -1.5816,1.7883 -0.6788,2.3786 0.2254,0.1473 0.434,0.3372 0.6987,0.4079 -0.1272,0.5459 -0.5831,0.9512 -0.7114,1.5018 -1.3143,-0.3062 -1.4007,-1.188 -2.0849,0.7606 -0.5988,1.7054 -0.6563,1.2594 0.8993,2.0058 -0.0892,0.3826 -0.2217,0.7801 -0.3162,1.1856 -0.2534,-0.1215 -0.9515,-0.2371 -1.3437,-0.2371 -0.397,0 -0.5828,1.5538 -0.6808,2.0109 -0.2354,1.0983 0.5393,0.9521 1.3922,1.1508 0,0.5148 -0.1475,1.1045 -0.1581,1.5808 -1.1069,0 -1.4742,0.0211 -1.5808,0.4627 v 2.1457 c 0,0.5893 1.2239,0.3952 1.5808,0.3952 0.0097,0.4359 0.1581,1.051 0.1581,1.5018 -1.8534,0.1542 -1.5468,0.5294 -1.2453,2.0357 0.052,0.2596 0.0913,1.1259 0.5339,1.1259 0.2812,0 1.0903,-0.1534 1.2647,-0.2371 0.099,0.2065 0.4529,1.3246 0.4742,1.5808 -0.3109,0.0725 -1.2647,0.4398 -1.2647,0.7905 0,0.3404 0.1997,0.7327 0.3387,1.0841 0.8144,2.0594 0.7149,1.2357 2.1907,0.8919 0.1004,0.4311 0.3738,0.6755 0.4742,1.1066 -0.3214,0.0858 -1.1066,0.5735 -1.1066,0.9485 0,0.4075 0.8101,1.4035 1.0567,1.789 0.5208,0.814 1.1511,0.0502 1.7888,-0.2872 0.2648,0.5004 0.6432,0.8087 0.9485,1.2646 -0.324,0.4839 -0.8694,0.6522 -0.8694,1.2647 0,0.2885 1.1202,1.2378 1.3618,1.4847 0.7309,0.747 1.049,-0.2183 1.6418,-0.6152 0.3403,0.2279 0.8766,0.605 1.1065,0.9485 -0.7099,1.3417 -1.0794,1.1511 0.3479,2.1024 1.2433,0.8287 1.1724,1.0643 2.1815,-0.4426 0.4365,0.231 0.9279,0.5961 1.4227,0.7114 -0.2595,1.1138 -0.9184,1.411 0.4281,1.9432 1.3702,0.5416 1.9028,1.1119 2.3384,-0.7576 0.3538,0.0825 0.8264,0.2863 1.1856,0.3162 -0.0362,0.4344 -0.3125,1.084 -0.1575,1.4157 0.1676,0.3588 0.885,0.3819 1.2838,0.4615 0.384,0.0767 1.1447,0.3236 1.3715,0.1532 0.2323,-0.1744 0.418,-1.0071 0.4267,-1.3981 0.5411,0 1.0643,0.1581 1.6599,0.1581 0,1.1077 -0.0377,1.4746 0.3588,1.5808 h 2.0915 c 0.7557,0 0.5533,-1.081 0.5533,-1.5808 0.5425,0 1.0231,-0.1182 1.5018,-0.1581 0,0.3383 0.0334,0.535 0.1105,0.8379 0.1077,0.4228 0.1799,0.3895 0.3637,0.6639 0.4359,0 1.0013,-0.1611 1.4162,-0.2437 0.6554,-0.1303 1.1922,-0.0905 1.1922,-0.7838 0,-0.4702 -0.1485,-0.5951 -0.1581,-1.0276 0.1734,-0.0832 1.3683,-0.4565 1.5808,-0.4742 0.0346,0.4159 0.3892,1.2646 0.8695,1.2646 0.2246,0 1.0682,-0.3782 1.2645,-0.4744 0.4488,-0.2198 1.0277,-0.2022 1.0277,-0.7902 0,-0.3715 -0.3545,-0.7751 -0.3952,-1.2647 0.4179,-0.0973 0.6924,-0.3848 1.0275,-0.4742 0.8688,1.2974 0.7097,1.4237 2.1815,0.4425 0.3232,-0.2154 0.9802,-0.5451 0.9802,-0.9168 0,-0.4526 -0.5169,-0.7688 -0.6324,-1.2646 0.442,-0.296 0.7933,-0.6075 1.1857,-0.9485 0.5876,0.3934 0.9221,1.3507 1.6417,0.6153 0.2499,-0.2554 1.4409,-1.2698 1.4409,-1.5638 0,-0.4997 -0.6354,-0.8361 -0.8695,-1.1857 0.0668,-0.25 0.6519,-0.9471 0.8695,-1.1066 0.6898,0.1842 1.1769,1.1551 1.758,0.2563 0.8256,-1.2769 1.5757,-1.7174 0.5826,-2.3598 -0.2645,-0.1711 -0.4156,-0.2855 -0.6807,-0.4258 0.1652,-0.2467 0.2589,-0.4366 0.3946,-0.7119 0.133,-0.2696 0.2608,-0.4557 0.3958,-0.7108 0.5599,0.1304 1.3925,0.8434 1.7323,-0.007 0.5313,-1.3289 1.2167,-2.0731 0.1446,-2.5027 -0.3127,-0.1253 -0.5023,-0.1943 -0.7703,-0.3362 0.144,-0.2723 0.3071,-0.7003 0.3161,-1.1066 0.3558,0.0296 0.6974,0.1635 1.0607,0.2101 0.4445,0.0569 0.6087,-0.1143 0.6996,-0.5049 0.125,-0.5372 0.3738,-1.5151 0.3738,-2.1555 -0.6324,-0.4235 -1.2458,-0.4138 -1.3807,-0.508 -0.1751,-0.1221 -0.087,-0.2525 -0.0192,-0.7325 0.0397,-0.2814 0.0562,-0.497 0.0562,-0.8936 1.6757,0 1.6599,0.2019 1.6599,-1.5018 -0.7318,0 -2.8148,0.6025 -3.6198,0.8065 l -3.652,0.8534 c -0.3266,3.9244 -1.8197,6.999 -4.2125,9.8569 -0.614,0.7332 -1.3432,1.3442 -2.0521,1.979 l -1.1655,0.8896 c -2.4725,1.7526 -5.9608,3.0037 -9.0896,3.0037 -3.0722,0 -5.5912,-0.4176 -8.0096,-1.6334 -1.1549,-0.5806 -2.2088,-1.2154 -3.2371,-1.9796 l -1.7037,-1.537 c -0.1798,-0.1983 -0.3136,-0.3272 -0.5076,-0.52 -2.0033,-1.992 -3.3238,-4.9719 -4.0102,-7.6879 -0.7511,-2.9713 -0.5601,-6.3449 0.4053,-9.2379 0.5018,-1.5036 1.1701,-2.9597 2.0597,-4.2636 0.4123,-0.6042 0.8654,-1.26 1.3878,-1.7738 0.3747,-0.3685 0.6343,-0.7582 1.0287,-1.1055 1.3425,-1.1823 2.7521,-2.219 4.3918,-3.0381 3.8689,-1.9327 9.1095,-2.2483 13.2636,-0.7468 1.7846,0.6451 4.1951,1.89 5.5826,3.2701 0.9185,0.9138 1.3531,1.2316 2.1983,2.307 l 1.7731,2.7323 c 0.5686,-0.0473 1.2541,-0.2725 1.8019,-0.4113 0.5523,-0.1399 1.1855,-0.2927 1.788,-0.4251 1.2493,-0.2745 2.393,-0.5416 3.6029,-0.8235 -0.3331,-1.4297 -0.7975,-1.3768 -2.0551,-0.7113 -0.083,-0.3561 -0.3826,-0.7841 -0.5533,-1.1066 1.7723,-0.9378 1.1074,-1.1246 0.3405,-2.3956 -0.9912,-1.6428 -1.0558,-0.2189 -2.0794,-0.1338 -0.111,-0.4156 -0.6334,-0.833 -0.8695,-1.1856 0.2288,-0.4323 0.8695,-0.6564 0.8695,-1.1856 0,-0.3307 -1.5663,-1.897 -1.897,-1.897 -0.3041,0 -0.9611,0.7312 -1.1066,0.9485 -0.3909,-0.2617 -0.7947,-0.6867 -1.1856,-0.9485 1.1533,-1.7224 0.819,-1.3418 -0.9325,-2.5459 -0.2334,-0.1605 -0.3942,-0.3291 -0.6609,-0.2415 -0.2755,0.0904 -0.7861,0.8625 -0.8569,1.1275 -0.3759,-0.1989 -1.0102,-0.6152 -1.4228,-0.7113 0.0281,-1.26 1.2775,-1.2633 -0.655,-2.0323 -0.7545,-0.3003 -1.4428,-0.9083 -1.8505,9e-4 -0.099,0.2207 -0.2405,0.5212 -0.2609,0.7667 -0.5887,0 -0.6541,-0.2253 -1.1856,-0.2371 0,-0.8714 0.638,-1.5572 -0.571,-1.8003 -0.4275,-0.086 -0.8281,-0.1539 -1.1873,-0.2366 -1.2143,-0.2797 -0.9738,0.4938 -1.2832,1.3326 l -1.5429,-0.0861 c 0,-2.0993 -0.1527,-1.6599 -2.3713,-1.6599 -0.3823,0 -0.6323,0.25 -0.6323,0.6323 z"
         style="fill:#c7a76e;fill-rule:evenodd"
         id="path4" />
      <path
         d="m 161.9133,144.0819 c 0.1627,0.609 2.0551,1.3046 2.0551,2.3712 0,2.6698 -1.2658,3.7219 -3.2741,4.9463 -0.8144,0.4965 -1.5429,0.9536 -2.3527,1.4412 l -7.21,4.3301 c -0.7884,0.5184 -1.5741,0.949 -2.3392,1.4548 -0.6429,0.4251 -2.055,1.0948 -2.055,1.897 0,1.2751 7.0147,0.5572 9.3734,0.9019 0.6828,0.0998 1.1505,0.2152 1.7432,0.391 1.7484,0.5187 2.6113,1.355 3.9578,2.3655 l 7.1348,5.5908 c 1.5438,1.0253 2.6656,0.5329 3.7757,-0.5744 0.1426,-0.1422 0.2635,-0.2455 0.3916,-0.3988 1.1356,-1.3585 3.0348,-3.1089 4.2605,-4.4341 l 2.6989,-2.7549 c 0.3147,-0.3119 0.4785,-0.5622 0.7899,-0.87 0.5758,-0.5691 1.0878,-1.0871 1.6602,-1.6595 0.8936,-0.8937 1.9416,-1.5143 1.0222,-3.3539 -0.2064,-0.4129 -0.4203,-0.7865 -0.7448,-1.0732 -0.2912,-0.2572 -0.6662,-0.5072 -1.0008,-0.7381 l -3.3031,-2.0717 c -1.1596,-0.7002 -3.4778,-1.8777 -4.7004,-2.4924 -0.9898,-0.4975 -0.5839,-0.0393 -1.2906,-1.3968 l -1.2482,-2.3087 c -0.0582,-0.1052 -0.1096,-0.2082 -0.1648,-0.3094 l -1.4335,-2.6767 c -0.5912,0 -1.4504,0.2157 -1.9864,0.3059 l -4.8702,0.8207 c -0.4115,0.0734 -0.5541,0.218 -0.8895,0.2962 z"
         style="fill:#c7a76e;fill-rule:evenodd"
         id="path5" />
      <path
         d="m 80.5796,144.0819 c 0.2378,0.1141 0.5163,0.129 0.8181,0.2094 l 2.6326,0.6872 c 0.5813,0.168 1.1277,0.2983 1.6866,0.4475 0.5813,0.1553 1.2052,0.3221 1.755,0.4582 l 6.8526,1.8419 c 3.1266,0.9771 5.8891,1.6041 8.6585,3.2768 1.537,0.9284 2.9444,2.1805 3.8639,3.7241 0.6021,1.0105 0.9571,1.8998 1.2857,3.0615 l 0.9484,3.3989 c 0.1352,0.4746 0.2938,1.3911 0.5711,1.6421 l 10.6386,7.8571 c 2.3166,1.6056 1.8033,1.603 4.7938,-0.2003 l 4.4362,-2.5986 c 1.1141,-0.6744 5.2951,-2.8677 6.0945,-3.6275 2.0747,-1.972 -2.2457,-2.6919 -3.1395,-3.0712 -0.37,-0.157 -0.6698,-0.2831 -1.0056,-0.4171 -0.2181,-0.0871 -0.2818,-0.1263 -0.488,-0.2234 -0.2277,-0.1073 -0.3332,-0.1208 -0.5739,-0.2165 l -15.4122,-6.5614 c -1.0283,-0.4244 -1.9539,-1.0403 -2.904,-1.6013 -2.9462,-1.7395 -3.3676,-2.7605 -4.909,-5.3664 -0.1509,-0.255 -0.4594,-0.7235 -0.5197,-0.9821 -1.2585,0 -11.2806,-1.5479 -13.5183,-1.7367 -1.6778,-0.1416 -4.9427,-0.6381 -6.7308,-0.8572 -1.1494,-0.1409 -2.2727,-0.2647 -3.3931,-0.4051 -0.7154,-0.0897 -0.5034,-0.0849 -1.2875,0.438 -0.2827,0.1884 -1.004,0.6174 -1.154,0.8221 z"
         style="fill:#c7a76e;fill-rule:evenodd"
         id="path6" />
      <path
         d="m 129.9806,181.6266 c 0,1.3015 0.2367,1.826 0.4742,2.8455 l -8.9508,2.115 c -2.9525,0.6236 -6.0282,1.4233 -9.0392,2.1056 l -9.0431,2.1018 c -0.7868,0.1913 -1.4387,0.305 -2.0233,0.7431 -0.4804,0.36 -0.8958,1.0448 -0.989,1.7838 -0.1853,1.4694 0.967,3.0069 2.4599,3.0069 0.9215,0 1.4875,-0.1715 2.3887,-0.3778 0.6468,-0.148 1.2534,-0.295 1.9112,-0.46 l 7.5715,-1.7555 c 0.6439,-0.16 1.2098,-0.2927 1.8622,-0.4299 2.7489,-0.5783 5.7445,-1.3517 8.5246,-1.988 0.354,-0.081 0.6663,-0.1219 0.9814,-0.2041 1.886,-0.4926 3.8323,-0.8743 5.7042,-1.3305 1.3155,-0.3206 4.1474,-0.0937 5.5183,-0.0937 -0.7389,-1.3964 -1.976,-3.9919 -1.976,-6.0071 0,-1.2055 0.8726,-2.6135 1.4405,-3.302 1.2022,-1.4572 2.3989,-2.6954 3.8663,-3.8797 3.9274,-3.1698 7.3261,-5.5123 11.6616,-8.0989 0.274,-0.1634 0.4858,-0.273 0.7526,-0.433 l 3.0669,-1.7546 c -0.1026,-0.3843 -1.5181,-1.6107 -1.9145,-1.9585 -0.9943,-0.8723 -1.8382,-0.6499 -3.5394,-0.6499 -0.3839,0 -0.7876,-0.03 -1.164,0.0216 -2.2724,0.3114 -1.8396,-0.3685 -3.7583,1.0633 -1.1686,0.8721 -2.9967,2.1725 -4.1067,3.086 -3.3751,2.7774 -5.3203,4.0854 -8.4605,7.3478 -1.5538,1.6143 -3.2193,4.1357 -3.2193,6.5028 z"
         style="fill:#c7a76e;fill-rule:evenodd"
         id="path7" />
      <path
         d="m 145.4727,149.2986 c -2.46,0 -15.2172,-1.7774 -18.5186,-2.1902 -0.7438,-0.093 -1.3421,-0.1844 -2.0321,-0.2601 l -12.2515,-1.5808 c -0.5439,0 -1.4177,1.5028 -1.5018,1.818 1.1307,1.6885 4.4597,3.3419 6.4002,4.1913 l 13.0562,5.5185 c 2.3953,0.9575 5.0637,2.1791 7.5088,3.1618 1.5923,0.64 1.8528,0.8905 3.9089,0.3762 1.3462,-0.3367 2.9347,-1.5016 4.1662,-2.2361 l 13.1271,-8.2141 c 1.3781,-0.9163 1.9449,-1.3142 1.9449,-2.7976 0,-0.9619 -0.881,-1.897 -2.2132,-1.897 -0.4703,0 -2.3624,1.0505 -3.0565,1.3698 -0.2824,0.1299 -0.4827,0.2496 -0.7484,0.3581 -0.2762,0.1129 -0.5132,0.2128 -0.7771,0.3295 -1.352,0.5978 -3.6062,1.3251 -5.0398,1.5996 -1.0831,0.2075 -2.838,0.4531 -3.9733,0.4531 z"
         style="fill:#c7a76e;fill-rule:evenodd"
         id="path8" />
      <path
         d="m 173.0582,128.1155 -5.2958,-0.7114 c -1.1433,-0.1241 -2.277,-0.553 -3.2233,0.3336 -0.3946,0.3698 -0.6476,0.6313 -0.7778,1.2809 -0.2417,1.2057 0.3589,2.2129 1.278,2.6104 0.7106,0.3074 4.2458,0.6993 5.248,0.8382 0.504,0.0698 1.306,0.2327 1.8224,0.2327 0.3507,1.5056 1.2715,3.2877 3.0035,2.3712 l 3.9521,8.9317 -2.9245,1.818 c 0.078,0.335 0.245,0.5782 0.4102,0.8544 0.2522,0.4216 0.1178,0.4464 0.5877,0.6771 l 1.2794,0.6175 c 0.1391,0.0657 0.2534,0.1407 0.4097,0.2227 2.8269,1.4833 3.75,2.01 6.4781,3.6392 0.5101,0.3046 1.0185,0.6826 1.505,1.0243 l 1.4232,1.1061 c -0.0236,-0.2844 -1.2809,-3.0226 -1.5017,-3.4779 l -3.0936,-6.9447 c -0.1231,-0.3012 -0.2596,-0.5365 -0.3957,-0.869 -0.1091,-0.2667 -0.2534,-0.6122 -0.3838,-0.8808 -1.6884,-3.48 -3.3184,-7.5828 -5.0321,-11.2505 -0.6609,-1.4145 -0.5257,-1.9843 -1.0055,-2.7884 -1.0067,-1.6873 -2.6791,-1.2548 -3.7635,0.3647 z"
         style="fill:#c7a76e;fill-rule:evenodd"
         id="path9" />
      <path
         d="m 148.8715,192.5343 -3.7965,-0.0766 c -1.4429,-0.0396 -6.761,-0.6317 -8.3619,-0.8069 -0.5015,-0.0548 -0.906,-0.144 -1.5158,-0.144 -0.8245,0 -1.7389,0.8477 -1.7389,1.6598 0,0.7065 -0.0463,1.265 0.8222,1.8652 0.4448,0.3075 1.0784,0.3599 1.7143,0.4198 4.6452,0.4376 7.7594,0.9557 12.7975,0.9557 3.2281,0 6.6018,-1.3221 8.3208,-2.9822 2.4684,-2.3836 2.9721,-3.7022 4.589,-6.7139 0.1629,-0.3034 0.2965,-0.5096 0.4483,-0.8164 l 4.8225,-9.0887 c 0.2935,-0.5639 0.5762,-1.1086 0.8684,-1.6609 -1.3111,-0.6938 -1.051,-0.3774 -2.5408,-1.4903 -0.3917,-0.2927 -0.5281,-0.4978 -0.7789,-0.5648 l -3.7412,7.1666 c -0.2575,0.5194 -0.5102,0.9385 -0.7636,1.4495 l -3.0828,5.6908 c -0.1203,0.2332 -0.2632,0.4687 -0.3996,0.707 -0.462,0.8078 -0.7655,1.2087 -1.4385,1.8812 -0.7261,0.7256 -0.9317,0.9199 -1.8225,1.4182 -1.2765,0.714 -2.6815,1.1309 -4.402,1.1309 z"
         style="fill:#c7a76e;fill-rule:evenodd"
         id="path10" />
      <path
         d="m 191.0796,154.5944 c 0.1504,0.6455 2.4636,5.3854 2.6084,6.0072 l 2.3234,-0.6803 c 5.3252,-1.3127 9.7206,-1.6552 15.2238,-0.7425 3.0607,0.5076 5.2871,1.2713 8.0289,2.4046 l 1.7723,0.8361 c 1.2297,0.6148 1.136,0.7904 2.2131,0.7904 0.6235,0 0.9929,-0.1467 1.5018,-0.1581 -0.0766,-0.2867 -0.1019,-0.2012 -0.2906,-0.4207 l -2.0994,-2.1689 c -0.1703,-0.1575 -0.2276,-0.1674 -0.3949,-0.3164 -4.3066,-3.836 -9.9899,-6.6317 -15.7831,-7.2971 -0.7593,-0.0872 -1.8923,-0.2472 -2.6164,-0.2353 l -5.3511,0.4226 c -1.828,0.2439 -3.0974,0.5492 -4.8381,0.9319 -0.607,0.1335 -1.9377,0.6185 -2.2981,0.6265 z"
         style="fill:#c7a76e;fill-rule:evenodd"
         id="path11" />
      <path
         d="m 88.0095,156.0171 c 0,0.8715 1.3371,1.1669 2.3713,1.5809 l 2.8455,1.1065 c -0.0387,0.4647 -0.7119,1.1941 0.1447,2.1475 0.0712,0.0793 0.3084,0.259 0.3985,0.3129 l 14.3956,5.9181 c -0.0768,-0.9237 -1.6471,-6.3166 -2.0018,-7.088 -0.6473,-1.4075 -2.0601,-2.9967 -3.2822,-3.9896 -0.346,-0.2811 -0.6665,-0.525 -1.027,-0.791 -0.9648,-0.7118 -3.5088,-2.2046 -4.6926,-2.5829 -0.6987,-0.2234 -1.4388,0.1546 -1.7503,0.749 -0.1264,0.2411 -0.1685,0.4349 -0.2879,0.6606 l -4.9797,-1.976 c -0.8265,0 -1.0257,1.1014 -1.2759,1.7276 -0.1062,0.2657 -0.8582,2.0632 -0.8582,2.2244 z"
         style="fill:#c7a76e;fill-rule:evenodd"
         id="path12" />
      <path
         d="m 142.311,183.6026 c 0,1.0754 0.2489,1.9019 0.5633,2.6774 1.4921,3.6808 6.6573,5.5386 10.5221,2.1637 0.1649,-0.144 0.2536,-0.2557 0.3758,-0.4146 0.3883,-0.505 0.6084,-0.6378 0.9769,-1.3944 0.6696,-1.3745 0.6828,-2.0408 0.6828,-3.5063 0,-1.5405 -0.9247,-3.0781 -1.905,-4.1022 -0.0112,-0.0117 -0.0274,-0.0286 -0.0389,-0.0401 -1.0131,-1.0144 -2.6457,-1.8649 -4.0632,-1.8649 -1.4361,0 -2.1135,-0.011 -3.4518,0.6584 -0.7805,0.3904 -1.2423,0.7589 -1.825,1.3367 -0.9406,0.9328 -1.837,2.6446 -1.837,4.4863 z"
         style="fill:#c7a76e;fill-rule:evenodd"
         id="path13" />
      <path
         d="m 186.9695,137.5214 c -0.5422,0.0451 -2.0828,0.9048 -2.6084,0.9485 0.0109,0.49 1.7657,4.2451 2.0551,4.9796 l 0.8471,1.9985 c 0.1982,0.4668 0.1626,0.611 0.6605,0.7621 0.7405,0.2248 1.4948,0.4168 2.2165,0.6291 0.8928,0.2625 0.8438,0.1228 1.557,0.5771 l 2.1958,1.3611 c 0.3028,0.199 0.568,0.3643 0.8763,0.5464 0.2757,0.1629 0.6244,0.4559 0.8947,0.5281 0,-1.9369 -1.3739,-5.8106 -2.0656,-7.4985 -0.8082,-1.9723 -2.8032,-5.9981 -4.0356,-7.8997 -1.2414,-1.9155 -2.4278,-3.8813 -3.7793,-5.7846 -0.3255,-0.4584 -0.6392,-0.9084 -0.9933,-1.378 -0.1907,-0.2529 -0.3342,-0.4459 -0.5083,-0.6773 -0.1682,-0.2236 -0.3137,-0.4607 -0.498,-0.6877 -0.1982,-0.2442 -0.3336,-0.4215 -0.5181,-0.6675 -0.1468,-0.1958 -0.3978,-0.5777 -0.5647,-0.7 -0.1432,0.6151 -0.2638,1.2848 -0.3886,1.9036 -0.2266,1.1237 -0.1437,0.7571 0.2836,1.6793 0.1347,0.2907 0.2096,0.5029 0.3419,0.7647 l 2.588,5.4742 c 0.0969,0.2048 0.0892,0.1498 0.1884,0.3648 0.2472,0.5353 1.2336,2.5195 1.255,2.7762 z"
         style="fill:#c7a76e;fill-rule:evenodd"
         id="path14" />
      <path
         d="m 94.8071,193.4828 c 0,1.2148 0.2204,2.3052 0.684,3.2681 0.3625,0.7531 0.8542,1.5278 1.4287,2.1282 0.4963,0.5185 1.3649,1.1761 2.0479,1.5089 2.3956,1.1671 5.1099,1.0063 7.3762,-0.348 0.6472,-0.3868 2.1293,-1.6547 2.2955,-2.368 -0.888,0.2069 -1.7935,0.4138 -2.6884,0.6314 -1.6432,0.3997 -3.1551,0.9035 -4.7957,0.1341 l -1.1126,-0.7053 c -0.5821,-0.522 -0.9408,-0.9263 -1.3113,-1.6923 -1.2024,-2.4864 0.1057,-5.5691 2.5672,-6.4991 0.5926,-0.2239 2.2801,-0.5948 2.9738,-0.7411 0.6222,-0.1312 2.6607,-0.6819 3.1023,-0.6917 -0.124,-0.4643 -1.674,-1.2504 -2.056,-1.4219 -2.8748,-1.2905 -6.2271,-0.4645 -8.2396,1.5598 -0.329,0.3309 -0.5597,0.6099 -0.8387,0.9792 -0.8348,1.1053 -1.4333,2.7485 -1.4333,4.2577 z"
         style="fill:#c7a76e;fill-rule:evenodd"
         id="path15" />
      <path
         d="m 158.6726,170.8769 c 0,3.2792 -1.9556,2.011 -4.7652,0.8923 -0.3222,-0.1283 -1.6453,-0.7342 -1.8743,-0.7342 -0.5513,0 -5.0002,2.6883 -6.0712,3.3347 -0.233,0.1406 -0.6717,0.3559 -0.8054,0.5384 l 1.432,-0.307 c 2.6369,-0.4693 5.3193,-0.0403 7.5454,1.2888 1.0773,0.6431 3.1724,1.9427 4.3016,1.9427 h 0.5533 c 1.5019,0 2.3597,-2.1558 2.6718,-3.4144 0.3668,-1.4796 0.6479,-3.9283 0.6479,-5.5173 -0.2656,-0.1779 -0.6584,-0.4042 -0.948,-0.5537 l -3.0831,-1.6595 c 0.1619,0.695 0.3952,3.3517 0.3952,4.1892 z"
         style="fill:#c7a76e;fill-rule:evenodd"
         id="path16" />
      <path
         d="m 161.5972,139.8136 -0.0838,1.1019 c -0.0285,0.3727 -0.0743,0.621 -0.0743,1.1113 1.2921,-0.301 2.7285,-0.5212 4.0372,-0.7844 l 4.025,-0.7964 -0.9485,-1.897 c -0.7736,0 -1.8991,0.3811 -2.5293,0.3952 0.1777,-2.1361 2.3553,-3.4916 4.4455,-1.1258 0.9377,1.0613 1.8331,2.8186 2.3977,4.1627 l 0.9028,2.4169 c 0.3415,-0.0284 0.679,-0.1607 1.011,-0.2537 0.3304,-0.0925 0.6636,-0.2109 1.0441,-0.2995 -0.008,-0.3552 -0.2794,-1.0184 -0.4292,-1.3887 -1.3963,-3.449 -3.5863,-8.9254 -8.1549,-7.9068 -1.8285,0.4077 -3.2424,2.0789 -3.3521,3.9998 -0.006,0.1045 -0.0488,0.7231 -0.05,0.727 -0.0388,0.1297 -0.0375,0.1087 -0.2445,0.1567 z"
         style="fill:#c7a76e;fill-rule:evenodd"
         id="path17" />
      <path
         d="m 124.0525,173.4853 c 0.2114,0.0493 0.4357,0.1596 0.6315,0.2379 0.2027,0.0809 0.4325,0.1497 0.6317,0.2378 0.769,0.3399 3.3776,1.4213 3.7954,1.4213 1.6017,0 1.6417,-1.0592 2.518,-3.252 l 1.1517,-2.8794 c 0.0718,-0.1789 0.15,-0.3509 0.2046,-0.5068 0.0705,-0.2011 0.0707,-0.3752 0.1568,-0.5546 -0.3159,0.0263 -0.3807,0.1191 -0.6006,0.2689 l -6.2312,3.649 c -0.4379,0.2635 -2.0905,1.1494 -2.2579,1.3779 z"
         style="fill:#c7a76e;fill-rule:evenodd"
         id="path18" />
      <path
         d="m 138.0428,187.3176 c 0.8351,0 1.7705,0.1924 2.72,0.1731 0.273,-0.006 0.0905,-0.2386 -0.059,-0.5404 -0.8686,-1.7522 -0.5589,-3.9796 -0.0251,-5.7705 0.108,-0.3625 0.2128,-0.5716 0.2886,-0.8969 -0.5966,0.3157 -1.2074,0.6189 -1.716,1.0504 -1.4944,1.2682 -2.2236,2.9603 -1.5964,4.9494 0.1057,0.3351 0.3097,0.6992 0.3879,1.0349 z"
         style="fill:#c7a76e;fill-rule:evenodd"
         id="path19" />
      <path
         d="m 133.0632,171.2722 1.6983,0.2099 c 0.4449,0.0643 0.4607,-0.0123 1.2074,-0.703 l 3.3386,-3.2219 h -3.9521 c -0.1757,0.3319 -0.3655,0.6105 -0.5686,0.9332 l -1.1549,1.8487 c -0.1959,0.3035 -0.4088,0.6308 -0.5687,0.9331 z"
         style="fill:#c7a76e;fill-rule:evenodd"
         id="path20" />
    </g>
  </g>
</svg>
