<?xml version="1.0" encoding="UTF-8"?>
<svg version="1.1" xmlns="http://www.w3.org/2000/svg" width="400" height="347">
<path d="M0 0 C132 0 264 0 400 0 C400 114.51 400 229.02 400 347 C268 347 136 347 0 347 C0 232.49 0 117.98 0 0 Z " fill="#000000" transform="translate(0,0)"/>
<path d="M0 0 C26.4 0 52.8 0 80 0 C80 6.93 80 13.86 80 21 C79.01 21 78.02 21 77 21 C77 21.99 77 22.98 77 24 C74.69 24 72.38 24 70 24 C70 25.32 70 26.64 70 28 C68.68 28 67.36 28 66 28 C66 28.99 66 29.98 66 31 C65.01 31 64.02 31 63 31 C63 32.32 63 33.64 63 35 C61.68 35 60.36 35 59 35 C59 35.99 59 36.98 59 38 C56.69 38 54.38 38 52 38 C52 39.32 52 40.64 52 42 C51.01 42 50.02 42 49 42 C49 42.99 49 43.98 49 45 C47.68 45 46.36 45 45 45 C45 46.32 45 47.64 45 49 C44.01 49 43.02 49 42 49 C42 49.99 42 50.98 42 52 C41.01 52 40.02 52 39 52 C39 53.32 39 54.64 39 56 C36.69 56 34.38 56 32 56 C32 56.99 32 57.98 32 59 C30.68 59 29.36 59 28 59 C28 60.32 28 61.64 28 63 C27.01 63 26.02 63 25 63 C25 63.99 25 64.98 25 66 C23.68 66 22.36 66 21 66 C21 67.32 21 68.64 21 70 C18.69 70 16.38 70 14 70 C14 70.99 14 71.98 14 73 C13.01 73 12.02 73 11 73 C11 74.32 11 75.64 11 77 C9.68 77 8.36 77 7 77 C7 77.99 7 78.98 7 80 C6.01 80 5.02 80 4 80 C4 81.32 4 82.64 4 84 C2.68 84 1.36 84 0 84 C0 84.99 0 85.98 0 87 C-2.31 87 -4.62 87 -7 87 C-7 88.32 -7 89.64 -7 91 C-7.99 91 -8.98 91 -10 91 C-10 91.99 -10 92.98 -10 94 C-11.32 94 -12.64 94 -14 94 C-14 95.32 -14 96.64 -14 98 C-14.99 98 -15.98 98 -17 98 C-17 98.99 -17 99.98 -17 101 C-19.31 101 -21.62 101 -24 101 C-24 102.32 -24 103.64 -24 105 C-25.32 105 -26.64 105 -28 105 C-28 105.99 -28 106.98 -28 108 C-28.99 108 -29.98 108 -31 108 C-31 109.32 -31 110.64 -31 112 C-32.32 112 -33.64 112 -35 112 C-35 112.99 -35 113.98 -35 115 C-35.99 115 -36.98 115 -38 115 C-38 116.32 -38 117.64 -38 119 C-40.31 119 -42.62 119 -45 119 C-45 119.99 -45 120.98 -45 122 C-46.32 122 -47.64 122 -49 122 C-49 123.32 -49 124.64 -49 126 C-49.99 126 -50.98 126 -52 126 C-52 126.99 -52 127.98 -52 129 C-53.32 129 -54.64 129 -56 129 C-56 129.99 -56 130.98 -56 132 C-56.99 132 -57.98 132 -59 132 C-59 133.32 -59 134.64 -59 136 C-61.31 136 -63.62 136 -66 136 C-66 136.99 -66 137.98 -66 139 C-67.32 139 -68.64 139 -70 139 C-70 140.32 -70 141.64 -70 143 C-70.99 143 -71.98 143 -73 143 C-73 143.99 -73 144.98 -73 146 C-74.32 146 -75.64 146 -77 146 C-77 147.32 -77 148.64 -77 150 C-79.31 150 -81.62 150 -84 150 C-84 150.99 -84 151.98 -84 153 C-84.99 153 -85.98 153 -87 153 C-87 154.32 -87 155.64 -87 157 C-88.32 157 -89.64 157 -91 157 C-91 157.99 -91 158.98 -91 160 C-91.99 160 -92.98 160 -94 160 C-94 161.32 -94 162.64 -94 164 C-96.31 164 -98.62 164 -101 164 C-101 164.99 -101 165.98 -101 167 C-103.31 167 -105.62 167 -108 167 C-108 164.69 -108 162.38 -108 160 C-108.99 160 -109.98 160 -111 160 C-111 159.01 -111 158.02 -111 157 C-112.32 157 -113.64 157 -115 157 C-115 164.92 -115 172.84 -115 181 C-117.31 181 -119.62 181 -122 181 C-122 182.32 -122 183.64 -122 185 C-122.99 185 -123.98 185 -125 185 C-125 185.99 -125 186.98 -125 188 C-126.32 188 -127.64 188 -129 188 C-129 189.32 -129 190.64 -129 192 C-129.99 192 -130.98 192 -132 192 C-132 192.99 -132 193.98 -132 195 C-133.32 195 -134.64 195 -136 195 C-136 196.32 -136 197.64 -136 199 C-138.31 199 -140.62 199 -143 199 C-143 199.99 -143 200.98 -143 202 C-143.99 202 -144.98 202 -146 202 C-146 203.32 -146 204.64 -146 206 C-147.32 206 -148.64 206 -150 206 C-150 206.99 -150 207.98 -150 209 C-150.99 209 -151.98 209 -153 209 C-153 210.32 -153 211.64 -153 213 C-155.31 213 -157.62 213 -160 213 C-160 213.99 -160 214.98 -160 216 C-161.32 216 -162.64 216 -164 216 C-164 217.32 -164 218.64 -164 220 C-164.99 220 -165.98 220 -167 220 C-167 220.99 -167 221.98 -167 223 C-168.32 223 -169.64 223 -171 223 C-171 224.32 -171 225.64 -171 227 C-171.99 227 -172.98 227 -174 227 C-174 227.99 -174 228.98 -174 230 C-176.31 230 -178.62 230 -181 230 C-181 231.32 -181 232.64 -181 234 C-182.32 234 -183.64 234 -185 234 C-185 234.99 -185 235.98 -185 237 C-185.99 237 -186.98 237 -188 237 C-188 238.32 -188 239.64 -188 241 C-189.32 241 -190.64 241 -192 241 C-192 241.99 -192 242.98 -192 244 C-194.31 244 -196.62 244 -199 244 C-199 245.32 -199 246.64 -199 248 C-199.99 248 -200.98 248 -202 248 C-202 248.99 -202 249.98 -202 251 C-203.32 251 -204.64 251 -206 251 C-206 252.32 -206 253.64 -206 255 C-206.99 255 -207.98 255 -209 255 C-209 198.57 -209 142.14 -209 84 C-208.01 84 -207.02 84 -206 84 C-206 82.68 -206 81.36 -206 80 C-204.68 80 -203.36 80 -202 80 C-202 79.01 -202 78.02 -202 77 C-199.69 77 -197.38 77 -195 77 C-195 75.68 -195 74.36 -195 73 C-194.01 73 -193.02 73 -192 73 C-192 72.01 -192 71.02 -192 70 C-189.69 70 -187.38 70 -185 70 C-185 68.68 -185 67.36 -185 66 C-183.68 66 -182.36 66 -181 66 C-181 65.01 -181 64.02 -181 63 C-178.69 63 -176.38 63 -174 63 C-174 61.68 -174 60.36 -174 59 C-173.01 59 -172.02 59 -171 59 C-171 58.01 -171 57.02 -171 56 C-169.68 56 -168.36 56 -167 56 C-167 54.68 -167 53.36 -167 52 C-164.69 52 -162.38 52 -160 52 C-160 51.01 -160 50.02 -160 49 C-159.01 49 -158.02 49 -157 49 C-157 47.68 -157 46.36 -157 45 C-154.69 45 -152.38 45 -150 45 C-150 44.01 -150 43.02 -150 42 C-148.68 42 -147.36 42 -146 42 C-146 40.68 -146 39.36 -146 38 C-143.69 38 -141.38 38 -139 38 C-139 37.01 -139 36.02 -139 35 C-138.01 35 -137.02 35 -136 35 C-136 33.68 -136 32.36 -136 31 C-134.68 31 -133.36 31 -132 31 C-132 30.01 -132 29.02 -132 28 C-129.69 28 -127.38 28 -125 28 C-125 26.68 -125 25.36 -125 24 C-124.01 24 -123.02 24 -122 24 C-122 23.01 -122 22.02 -122 21 C-119.69 21 -117.38 21 -115 21 C-115 19.68 -115 18.36 -115 17 C-113.68 17 -112.36 17 -111 17 C-111 16.01 -111 15.02 -111 14 C-108.69 14 -106.38 14 -104 14 C-104 12.68 -104 11.36 -104 10 C-103.01 10 -102.02 10 -101 10 C-101 9.01 -101 8.02 -101 7 C-98.69 7 -96.38 7 -94 7 C-94 7.99 -94 8.98 -94 10 C-95.32 10 -96.64 10 -98 10 C-98 12.31 -98 14.62 -98 17 C-98.99 17 -99.98 17 -101 17 C-101 18.32 -101 19.64 -101 21 C-101.99 21 -102.98 21 -104 21 C-104 23.31 -104 25.62 -104 28 C-105.32 28 -106.64 28 -108 28 C-108 31.3 -108 34.6 -108 38 C-106.68 38 -105.36 38 -104 38 C-104 39.32 -104 40.64 -104 42 C-103.01 42 -102.02 42 -101 42 C-101 44.31 -101 46.62 -101 49 C-100.01 49 -99.02 49 -98 49 C-98 51.31 -98 53.62 -98 56 C-96.68 56 -95.36 56 -94 56 C-94 56.99 -94 57.98 -94 59 C-93.01 59 -92.02 59 -91 59 C-91 61.31 -91 63.62 -91 66 C-89.68 66 -88.36 66 -87 66 C-87 68.31 -87 70.62 -87 73 C-86.01 73 -85.02 73 -84 73 C-84 75.31 -84 77.62 -84 80 C-82.68 80 -81.36 80 -80 80 C-80 81.32 -80 82.64 -80 84 C-79.01 84 -78.02 84 -77 84 C-77 86.31 -77 88.62 -77 91 C-75.68 91 -74.36 91 -73 91 C-73 93.31 -73 95.62 -73 98 C-72.01 98 -71.02 98 -70 98 C-70 98.99 -70 99.98 -70 101 C-68.68 101 -67.36 101 -66 101 C-66 103.31 -66 105.62 -66 108 C-65.01 108 -64.02 108 -63 108 C-63 105.69 -63 103.38 -63 101 C-61.68 101 -60.36 101 -59 101 C-59 100.01 -59 99.02 -59 98 C-58.01 98 -57.02 98 -56 98 C-56 95.69 -56 93.38 -56 91 C-54.68 91 -53.36 91 -52 91 C-52 88.69 -52 86.38 -52 84 C-51.01 84 -50.02 84 -49 84 C-49 81.69 -49 79.38 -49 77 C-47.68 77 -46.36 77 -45 77 C-45 75.68 -45 74.36 -45 73 C-44.01 73 -43.02 73 -42 73 C-42 70.69 -42 68.38 -42 66 C-40.68 66 -39.36 66 -38 66 C-38 63.69 -38 61.38 -38 59 C-37.01 59 -36.02 59 -35 59 C-35 56.69 -35 54.38 -35 52 C-32.69 52 -30.38 52 -28 52 C-28 48.7 -28 45.4 -28 42 C-26.68 42 -25.36 42 -24 42 C-24 39.69 -24 37.38 -24 35 C-23.01 35 -22.02 35 -21 35 C-21 32.69 -21 30.38 -21 28 C-19.68 28 -18.36 28 -17 28 C-17 26.68 -17 25.36 -17 24 C-16.01 24 -15.02 24 -14 24 C-14 21.69 -14 19.38 -14 17 C-12.68 17 -11.36 17 -10 17 C-10 14.69 -10 12.38 -10 10 C-9.01 10 -8.02 10 -7 10 C-7 7.69 -7 5.38 -7 3 C-4.69 3 -2.38 3 0 3 C0 2.01 0 1.02 0 0 Z " fill="#E24B0F" transform="translate(253,47)"/>
<path d="M0 0 C2.31 0 4.62 0 7 0 C7 48.51 7 97.02 7 147 C6.01 147 5.02 147 4 147 C4 147.99 4 148.98 4 150 C2.68 150 1.36 150 0 150 C0 151.32 0 152.64 0 154 C-0.99 154 -1.98 154 -3 154 C-3 154.99 -3 155.98 -3 157 C-4.32 157 -5.64 157 -7 157 C-7 158.32 -7 159.64 -7 161 C-7.99 161 -8.98 161 -10 161 C-10 161.99 -10 162.98 -10 164 C-12.31 164 -14.62 164 -17 164 C-17 165.32 -17 166.64 -17 168 C-18.32 168 -19.64 168 -21 168 C-21 168.99 -21 169.98 -21 171 C-21.99 171 -22.98 171 -24 171 C-24 172.32 -24 173.64 -24 175 C-25.32 175 -26.64 175 -28 175 C-28 175.99 -28 176.98 -28 178 C-29.98 178 -31.96 178 -34 178 C-34 179.32 -34 180.64 -34 182 C-35.32 182 -36.64 182 -38 182 C-38 182.99 -38 183.98 -38 185 C-38.99 185 -39.98 185 -41 185 C-41 186.32 -41 187.64 -41 189 C-42.32 189 -43.64 189 -45 189 C-45 189.99 -45 190.98 -45 192 C-45.99 192 -46.98 192 -48 192 C-48 193.32 -48 194.64 -48 196 C-50.31 196 -52.62 196 -55 196 C-55 196.99 -55 197.98 -55 199 C-56.32 199 -57.64 199 -59 199 C-59 200.32 -59 201.64 -59 203 C-59.99 203 -60.98 203 -62 203 C-62 203.99 -62 204.98 -62 206 C-63.32 206 -64.64 206 -66 206 C-66 207.32 -66 208.64 -66 210 C-68.31 210 -70.62 210 -73 210 C-73 210.99 -73 211.98 -73 213 C-73.99 213 -74.98 213 -76 213 C-76 214.32 -76 215.64 -76 217 C-77.32 217 -78.64 217 -80 217 C-80 217.99 -80 218.98 -80 220 C-80.99 220 -81.98 220 -83 220 C-83 221.32 -83 222.64 -83 224 C-85.31 224 -87.62 224 -90 224 C-90 190.34 -90 156.68 -90 122 C-91.32 122 -92.64 122 -94 122 C-94 124.31 -94 126.62 -94 129 C-94.99 129 -95.98 129 -97 129 C-97 130.32 -97 131.64 -97 133 C-98.32 133 -99.64 133 -101 133 C-101 135.31 -101 137.62 -101 140 C-101.99 140 -102.98 140 -104 140 C-104 140.99 -104 141.98 -104 143 C-105.32 143 -106.64 143 -108 143 C-108 145.31 -108 147.62 -108 150 C-108.99 150 -109.98 150 -111 150 C-111 151.32 -111 152.64 -111 154 C-112.32 154 -113.64 154 -115 154 C-115 156.31 -115 158.62 -115 161 C-115.99 161 -116.98 161 -118 161 C-118 161.99 -118 162.98 -118 164 C-119.32 164 -120.64 164 -122 164 C-122 166.31 -122 168.62 -122 171 C-122.99 171 -123.98 171 -125 171 C-125 172.32 -125 173.64 -125 175 C-126.32 175 -127.64 175 -129 175 C-129 177.31 -129 179.62 -129 182 C-129.99 182 -130.98 182 -132 182 C-132 182.99 -132 183.98 -132 185 C-133.32 185 -134.64 185 -136 185 C-136 186.32 -136 187.64 -136 189 C-136.99 189 -137.98 189 -139 189 C-139 187.68 -139 186.36 -139 185 C-140.32 185 -141.64 185 -143 185 C-143 184.01 -143 183.02 -143 182 C-143.99 182 -144.98 182 -146 182 C-146 179.69 -146 177.38 -146 175 C-147.32 175 -148.64 175 -150 175 C-150 173.68 -150 172.36 -150 171 C-150.99 171 -151.98 171 -153 171 C-153 168.69 -153 166.38 -153 164 C-154.32 164 -155.64 164 -157 164 C-157 163.01 -157 162.02 -157 161 C-157.99 161 -158.98 161 -160 161 C-160 158.69 -160 156.38 -160 154 C-161.32 154 -162.64 154 -164 154 C-164 152.68 -164 151.36 -164 150 C-164.99 150 -165.98 150 -167 150 C-167 145.38 -167 140.76 -167 136 C-166.01 136 -165.02 136 -164 136 C-164 135.01 -164 134.02 -164 133 C-161.69 133 -159.38 133 -157 133 C-157 131.68 -157 130.36 -157 129 C-155.68 129 -154.36 129 -153 129 C-153 128.01 -153 127.02 -153 126 C-152.01 126 -151.02 126 -150 126 C-150 124.68 -150 123.36 -150 122 C-148.68 122 -147.36 122 -146 122 C-146 121.01 -146 120.02 -146 119 C-143.69 119 -141.38 119 -139 119 C-139 117.68 -139 116.36 -139 115 C-138.01 115 -137.02 115 -136 115 C-136 114.01 -136 113.02 -136 112 C-134.68 112 -133.36 112 -132 112 C-132 110.68 -132 109.36 -132 108 C-131.01 108 -130.02 108 -129 108 C-129 107.01 -129 106.02 -129 105 C-127.68 105 -126.36 105 -125 105 C-125 103.68 -125 102.36 -125 101 C-122.69 101 -120.38 101 -118 101 C-118 100.01 -118 99.02 -118 98 C-117.01 98 -116.02 98 -115 98 C-115 96.68 -115 95.36 -115 94 C-113.68 94 -112.36 94 -111 94 C-111 93.01 -111 92.02 -111 91 C-110.01 91 -109.02 91 -108 91 C-108 90.01 -108 89.02 -108 88 C-105.69 88 -103.38 88 -101 88 C-101 86.68 -101 85.36 -101 84 C-99.68 84 -98.36 84 -97 84 C-97 83.01 -97 82.02 -97 81 C-96.01 81 -95.02 81 -94 81 C-94 79.68 -94 78.36 -94 77 C-92.68 77 -91.36 77 -90 77 C-90 76.01 -90 75.02 -90 74 C-89.01 74 -88.02 74 -87 74 C-87 72.68 -87 71.36 -87 70 C-84.69 70 -82.38 70 -80 70 C-80 69.01 -80 68.02 -80 67 C-78.68 67 -77.36 67 -76 67 C-76 65.68 -76 64.36 -76 63 C-75.01 63 -74.02 63 -73 63 C-73 62.01 -73 61.02 -73 60 C-71.68 60 -70.36 60 -69 60 C-69 58.68 -69 57.36 -69 56 C-66.69 56 -64.38 56 -62 56 C-62 55.01 -62 54.02 -62 53 C-61.01 53 -60.02 53 -59 53 C-59 51.68 -59 50.36 -59 49 C-57.68 49 -56.36 49 -55 49 C-55 48.01 -55 47.02 -55 46 C-54.01 46 -53.02 46 -52 46 C-52 44.68 -52 43.36 -52 42 C-50.68 42 -49.36 42 -48 42 C-48 41.01 -48 40.02 -48 39 C-45.69 39 -43.38 39 -41 39 C-41 37.68 -41 36.36 -41 35 C-40.01 35 -39.02 35 -38 35 C-38 34.01 -38 33.02 -38 32 C-36.68 32 -35.36 32 -34 32 C-34 30.68 -34 29.36 -34 28 C-33.01 28 -32.02 28 -31 28 C-31 27.01 -31 26.02 -31 25 C-28.69 25 -26.38 25 -24 25 C-24 23.68 -24 22.36 -24 21 C-23.01 21 -22.02 21 -21 21 C-21 20.01 -21 19.02 -21 18 C-19.68 18 -18.36 18 -17 18 C-17 16.68 -17 15.36 -17 14 C-16.01 14 -15.02 14 -14 14 C-14 13.01 -14 12.02 -14 11 C-11.69 11 -9.38 11 -7 11 C-7 9.68 -7 8.36 -7 7 C-5.68 7 -4.36 7 -3 7 C-3 6.01 -3 5.02 -3 4 C-2.01 4 -1.02 4 0 4 C0 2.68 0 1.36 0 0 Z " fill="#E24B0F" transform="translate(326,85)"/>
<path d="M0 0 C30.03 0 60.06 0 91 0 C91 0.99 91 1.98 91 3 C90.01 3 89.02 3 88 3 C88 4.32 88 5.64 88 7 C86.68 7 85.36 7 84 7 C84 7.99 84 8.98 84 10 C81.69 10 79.38 10 77 10 C77 11.32 77 12.64 77 14 C76.01 14 75.02 14 74 14 C74 14.99 74 15.98 74 17 C71.69 17 69.38 17 67 17 C67 18.32 67 19.64 67 21 C65.68 21 64.36 21 63 21 C63 21.99 63 22.98 63 24 C60.69 24 58.38 24 56 24 C56 25.32 56 26.64 56 28 C55.01 28 54.02 28 53 28 C53 28.99 53 29.98 53 31 C50.69 31 48.38 31 46 31 C46 32.32 46 33.64 46 35 C44.68 35 43.36 35 42 35 C42 35.99 42 36.98 42 38 C39.69 38 37.38 38 35 38 C35 39.32 35 40.64 35 42 C34.01 42 33.02 42 32 42 C32 42.99 32 43.98 32 45 C30.68 45 29.36 45 28 45 C28 46.32 28 47.64 28 49 C25.69 49 23.38 49 21 49 C21 49.99 21 50.98 21 52 C20.01 52 19.02 52 18 52 C18 53.32 18 54.64 18 56 C15.69 56 13.38 56 11 56 C11 56.99 11 57.98 11 59 C9.68 59 8.36 59 7 59 C7 60.32 7 61.64 7 63 C4.69 63 2.38 63 0 63 C0 42.21 0 21.42 0 0 Z " fill="#E34B0F" transform="translate(47,47)"/>
<path d="M0 0 C0.99 0 1.98 0 3 0 C3 23.1 3 46.2 3 70 C-23.4 70 -49.8 70 -77 70 C-77 67.69 -77 65.38 -77 63 C-76.01 63 -75.02 63 -74 63 C-74 62.01 -74 61.02 -74 60 C-72.68 60 -71.36 60 -70 60 C-70 58.68 -70 57.36 -70 56 C-67.69 56 -65.38 56 -63 56 C-63 55.01 -63 54.02 -63 53 C-62.01 53 -61.02 53 -60 53 C-60 51.68 -60 50.36 -60 49 C-58.68 49 -57.36 49 -56 49 C-56 48.01 -56 47.02 -56 46 C-55.01 46 -54.02 46 -53 46 C-53 44.68 -53 43.36 -53 42 C-51.68 42 -50.36 42 -49 42 C-49 41.01 -49 40.02 -49 39 C-46.69 39 -44.38 39 -42 39 C-42 37.68 -42 36.36 -42 35 C-41.01 35 -40.02 35 -39 35 C-39 34.01 -39 33.02 -39 32 C-37.68 32 -36.36 32 -35 32 C-35 30.68 -35 29.36 -35 28 C-34.01 28 -33.02 28 -32 28 C-32 27.01 -32 26.02 -32 25 C-29.69 25 -27.38 25 -25 25 C-25 23.68 -25 22.36 -25 21 C-23.68 21 -22.36 21 -21 21 C-21 20.01 -21 19.02 -21 18 C-20.01 18 -19.02 18 -18 18 C-18 16.68 -18 15.36 -18 14 C-16.68 14 -15.36 14 -14 14 C-14 13.01 -14 12.02 -14 11 C-13.01 11 -12.02 11 -11 11 C-11 9.68 -11 8.36 -11 7 C-8.69 7 -6.38 7 -4 7 C-4 6.01 -4 5.02 -4 4 C-2.68 4 -1.36 4 0 4 C0 2.68 0 1.36 0 0 Z " fill="#E04A0F" transform="translate(135,242)"/>
<path d="M0 0 C1.32 0 2.64 0 4 0 C4 19.47 4 38.94 4 59 C-19.1 59 -42.2 59 -66 59 C-66 56.69 -66 54.38 -66 52 C-64.68 52 -63.36 52 -62 52 C-62 51.01 -62 50.02 -62 49 C-59.69 49 -57.38 49 -55 49 C-55 47.68 -55 46.36 -55 45 C-54.01 45 -53.02 45 -52 45 C-52 44.01 -52 43.02 -52 42 C-50.68 42 -49.36 42 -48 42 C-48 40.68 -48 39.36 -48 38 C-47.01 38 -46.02 38 -45 38 C-45 37.01 -45 36.02 -45 35 C-42.69 35 -40.38 35 -38 35 C-38 33.68 -38 32.36 -38 31 C-36.68 31 -35.36 31 -34 31 C-34 30.01 -34 29.02 -34 28 C-33.01 28 -32.02 28 -31 28 C-31 26.68 -31 25.36 -31 24 C-30.01 24 -29.02 24 -28 24 C-28 23.01 -28 22.02 -28 21 C-26.68 21 -25.36 21 -24 21 C-24 19.68 -24 18.36 -24 17 C-21.69 17 -19.38 17 -17 17 C-17 16.01 -17 15.02 -17 14 C-16.01 14 -15.02 14 -14 14 C-14 12.68 -14 11.36 -14 10 C-12.68 10 -11.36 10 -10 10 C-10 9.01 -10 8.02 -10 7 C-9.01 7 -8.02 7 -7 7 C-7 5.68 -7 4.36 -7 3 C-4.69 3 -2.38 3 0 3 C0 2.01 0 1.02 0 0 Z " fill="#E04A0F" transform="translate(326,253)"/>
<path d="M0 0 C0.99 0 1.98 0 3 0 C3 54.12 3 108.24 3 164 C4.32 164 5.64 164 7 164 C7 164.99 7 165.98 7 167 C5.68 167 4.36 167 3 167 C3 168.32 3 169.64 3 171 C2.01 171 1.02 171 0 171 C0 114.57 0 58.14 0 0 Z " fill="#AC390B" transform="translate(44,131)"/>
<path d="M0 0 C31.35 0 62.7 0 95 0 C95 2.31 95 4.62 95 7 C93.68 7 92.36 7 91 7 C91 6.01 91 5.02 91 4 C60.97 4 30.94 4 0 4 C0 2.68 0 1.36 0 0 Z " fill="#3A1304" transform="translate(47,43)"/>
<path d="M0 0 C0.99 0 1.98 0 3 0 C3 41.58 3 83.16 3 126 C2.01 126 1.02 126 0 126 C0 84.42 0 42.84 0 0 Z " fill="#742708" transform="translate(330,106)"/>
<path d="M0 0 C27.39 0 54.78 0 83 0 C83 1.32 83 2.64 83 4 C56.6 4 30.2 4 3 4 C3 4.99 3 5.98 3 7 C2.01 7 1.02 7 0 7 C0 4.69 0 2.38 0 0 Z " fill="#3B1304" transform="translate(250,43)"/>
<path d="M0 0 C1.32 0 2.64 0 4 0 C4 22.11 4 44.22 4 67 C2.68 67 1.36 67 0 67 C0 44.89 0 22.78 0 0 Z " fill="#3A1304" transform="translate(138,242)"/>
<path d="M0 0 C0.99 0 1.98 0 3 0 C3 27.39 3 54.78 3 83 C2.01 83 1.02 83 0 83 C0 55.61 0 28.22 0 0 Z " fill="#742708" transform="translate(44,131)"/>
<path d="M0 0 C26.4 0 52.8 0 80 0 C80 0.99 80 1.98 80 3 C53.6 3 27.2 3 0 3 C0 2.01 0 1.02 0 0 Z " fill="#742708" transform="translate(58,309)"/>
<path d="M0 0 C1.32 0 2.64 0 4 0 C4 1.32 4 2.64 4 4 C25.78 4 47.56 4 70 4 C70 4.99 70 5.98 70 7 C46.9 7 23.8 7 0 7 C0 4.69 0 2.38 0 0 Z " fill="#742708" transform="translate(260,305)"/>
<path d="M0 0 C0.99 0 1.98 0 3 0 C3 19.8 3 39.6 3 60 C4.32 60 5.64 60 7 60 C7 60.99 7 61.98 7 63 C4.69 63 2.38 63 0 63 C0 42.21 0 21.42 0 0 Z " fill="#3D1404" transform="translate(44,50)"/>
<path d="M0 0 C2.31 0 4.62 0 7 0 C7 19.8 7 39.6 7 60 C6.01 60 5.02 60 4 60 C4 41.52 4 23.04 4 4 C2.68 4 1.36 4 0 4 C0 2.68 0 1.36 0 0 Z " fill="#3A1304" transform="translate(326,249)"/>
<path d="M0 0 C1.32 0 2.64 0 4 0 C4 12.87 4 25.74 4 39 C4.99 39 5.98 39 7 39 C7 39.99 7 40.98 7 42 C4.69 42 2.38 42 0 42 C0 28.14 0 14.28 0 0 Z " fill="#3A1304" transform="translate(232,270)"/>
<path d="M0 0 C1.32 0 2.64 0 4 0 C4 0.99 4 1.98 4 3 C4.99 3 5.98 3 7 3 C7 4.32 7 5.64 7 7 C6.01 7 5.02 7 4 7 C4 11.62 4 16.24 4 21 C2.68 21 1.36 21 0 21 C0 14.07 0 7.14 0 0 Z " fill="#3A1304" transform="translate(138,204)"/>
<path d="M0 0 C6.93 0 13.86 0 21 0 C21 2.31 21 4.62 21 7 C19.68 7 18.36 7 17 7 C17 6.01 17 5.02 17 4 C11.39 4 5.78 4 0 4 C0 2.68 0 1.36 0 0 Z " fill="#742708" transform="translate(121,43)"/>
<path d="M0 0 C2.31 0 4.62 0 7 0 C7 6.93 7 13.86 7 21 C6.01 21 5.02 21 4 21 C4 15.39 4 9.78 4 4 C2.68 4 1.36 4 0 4 C0 2.68 0 1.36 0 0 Z " fill="#AD3A0C" transform="translate(326,85)"/>
<path d="M0 0 C1.32 0 2.64 0 4 0 C4 2.31 4 4.62 4 7 C2.68 7 1.36 7 0 7 C0 4.69 0 2.38 0 0 Z " fill="#521B05" transform="translate(155,225)"/>
<path d="M0 0 C2.31 0 4.62 0 7 0 C7 1.32 7 2.64 7 4 C4.69 4 2.38 4 0 4 C0 2.68 0 1.36 0 0 Z " fill="#521B05" transform="translate(155,50)"/>
<path d="M0 0 C0.99 0 1.98 0 3 0 C3 2.31 3 4.62 3 7 C2.01 7 1.02 7 0 7 C0 4.69 0 2.38 0 0 Z " fill="#521B05" transform="translate(222,92)"/>
<path d="M0 0 C0.99 0 1.98 0 3 0 C3 2.31 3 4.62 3 7 C2.01 7 1.02 7 0 7 C0 4.69 0 2.38 0 0 Z " fill="#94310A" transform="translate(142,75)"/>
<path d="M0 0 C2.31 0 4.62 0 7 0 C7 0.99 7 1.98 7 3 C4.69 3 2.38 3 0 3 C0 2.01 0 1.02 0 0 Z " fill="#B53C0C" transform="translate(152,54)"/>
</svg>
